<?xml version="1.0" encoding="utf-8"?>
<!-- Generator: Adobe Illustrator 16.0.1, SVG Export Plug-In . SVG Version: 6.00 Build 0)  -->
<!DOCTYPE svg PUBLIC "-//W3C//DTD SVG 1.1//EN" "http://www.w3.org/Graphics/SVG/1.1/DTD/svg11.dtd">
<svg version="1.1" id="Layer_1" xmlns="http://www.w3.org/2000/svg" xmlns:xlink="http://www.w3.org/1999/xlink" x="0px" y="0px"
	 width="30px" height="30px" viewBox="0 0 30 30" enable-background="new 0 0 30 30" xml:space="preserve">
<g>
	<path d="M10.381,4.413C9.751,4.872,9.264,5.43,8.92,6.089C8.577,6.748,8.405,7.507,8.405,8.366c0,1.003,0.229,1.862,0.688,2.578
		c0.458,0.716,1.06,1.289,1.805,1.719l0.086,0.043c-0.229,0.144-0.487,0.337-0.773,0.58c-0.287,0.244-0.573,0.516-0.859,0.816
		c-0.287,0.301-0.523,0.63-0.709,0.988c-0.187,0.358-0.279,0.738-0.279,1.139c0,0.602,0.193,1.16,0.58,1.676
		s0.995,0.859,1.826,1.031c-0.43,0.086-0.859,0.2-1.289,0.344s-0.816,0.329-1.16,0.559s-0.623,0.516-0.838,0.859
		s-0.322,0.759-0.322,1.246v0.172c-0.974-1.003-1.748-2.155-2.32-3.459c-0.573-1.304-0.859-2.714-0.859-4.232
		c0-1.117,0.157-2.184,0.473-3.201c0.315-1.017,0.759-1.955,1.332-2.814c0.573-0.859,1.246-1.633,2.02-2.32
		S9.436,4.843,10.381,4.413z M17.084,19.839c0.659,0,1.174,0.157,1.547,0.473s0.559,0.73,0.559,1.246
		c0,0.602-0.279,1.103-0.838,1.504s-1.654,0.602-3.287,0.602c-1.433,0-2.428-0.208-2.986-0.623s-0.838-0.896-0.838-1.439
		c0-0.401,0.122-0.795,0.365-1.182c0.243-0.387,0.709-0.58,1.396-0.58H17.084z M25.979,14.425c0,1.547-0.301,2.986-0.902,4.318
		s-1.404,2.499-2.406,3.502c0.4-0.745,0.602-1.618,0.602-2.621c0-1.489-0.408-2.578-1.225-3.266s-2.07-1.031-3.76-1.031h-5.414
		c-0.287,0-0.537-0.1-0.752-0.301c-0.215-0.2-0.322-0.43-0.322-0.688c0-0.2,0.064-0.401,0.193-0.602
		c0.129-0.2,0.293-0.372,0.494-0.516c0.401,0.144,0.795,0.229,1.182,0.258c0.387,0.029,0.823,0.043,1.311,0.043
		c1.948,0,3.515-0.451,4.705-1.354s1.783-2.184,1.783-3.846c-0.029-0.917-0.229-1.711-0.602-2.385
		c-0.373-0.673-0.889-1.21-1.547-1.611c0.975,0.43,1.869,0.981,2.686,1.654c0.816,0.673,1.518,1.447,2.105,2.32
		c0.588,0.874,1.045,1.826,1.375,2.857S25.979,13.279,25.979,14.425z M16.955,8.366c0,0.745-0.051,1.339-0.152,1.783
		c-0.102,0.444-0.246,0.781-0.434,1.01c-0.188,0.229-0.406,0.373-0.652,0.43c-0.246,0.058-0.499,0.086-0.76,0.086
		s-0.514-0.028-0.76-0.086c-0.247-0.057-0.464-0.2-0.652-0.43c-0.188-0.229-0.333-0.559-0.434-0.988
		c-0.102-0.43-0.152-1.031-0.152-1.805s0.05-1.389,0.152-1.848c0.101-0.458,0.246-0.809,0.434-1.053
		c0.188-0.243,0.406-0.401,0.652-0.473c0.246-0.071,0.499-0.107,0.76-0.107c0.29,0,0.557,0.043,0.804,0.129
		c0.246,0.086,0.456,0.251,0.629,0.494c0.174,0.244,0.311,0.595,0.412,1.053C16.904,7.02,16.955,7.622,16.955,8.366z"/>
</g>
</svg>
