<?xml version="1.0" encoding="utf-8"?>
<!-- Generator: Adobe Illustrator 20.1.0, SVG Export Plug-In . SVG Version: 6.00 Build 0)  -->
<svg version="1.1" id="Layer_1" xmlns="http://www.w3.org/2000/svg" xmlns:xlink="http://www.w3.org/1999/xlink" x="0px" y="0px"
	 viewBox="0 0 30 30" style="enable-background:new 0 0 30 30;" xml:space="preserve">
<g>
	<path style="fill:#FFFFFF;" d="M14.7,4.4c-1.5,0-2.9,0.2-4.2,0.7C9.2,5.6,8,6.3,6.9,7.1L6.3,6.5c1-1.2,2.2-2.2,3.7-2.9
		c1.5-0.7,3-1.1,4.7-1.1c1.7,0,3.3,0.4,4.7,1.1c1.5,0.7,2.7,1.7,3.7,2.9l-0.6,0.6c-1.1-0.8-2.3-1.5-3.6-2
		C17.6,4.6,16.2,4.4,14.7,4.4z M22.5,16.7l-1.5,9.9H13l-0.7-3.4l-5-5v-0.7l1.3-1.3l3.8,2v0l1.4-11.3H16v7.3l6.1,1.8L22.5,16.7z"/>
</g>
</svg>
