<?xml version="1.0" encoding="utf-8"?>
<!-- Generator: Adobe Illustrator 16.0.1, SVG Export Plug-In . SVG Version: 6.00 Build 0)  -->
<!DOCTYPE svg PUBLIC "-//W3C//DTD SVG 1.1//EN" "http://www.w3.org/Graphics/SVG/1.1/DTD/svg11.dtd">
<svg version="1.1" id="Layer_1" xmlns="http://www.w3.org/2000/svg" xmlns:xlink="http://www.w3.org/1999/xlink" x="0px" y="0px"
	 width="300px" height="300px" viewBox="0 0 300 300" enable-background="new 0 0 300 300" xml:space="preserve">
<g>
	<defs>
		<rect id="SVGID_1_" x="-0.521" width="300.708" height="268"/>
	</defs>
	<clipPath id="SVGID_2_">
		<use xlink:href="#SVGID_1_"  overflow="visible"/>
	</clipPath>
	<g transform="translate(0, 0)" clip-path="url(#SVGID_2_)">
		<g>
			<path fill="#E0E0E0" d="M238.307,280.568l-2.419-1.341l-2.03-1.152l-2.08-0.765l-12.864-2.207l-3.047-0.479l-7.447-1.15
				l-7.495-1.151l-7.447-1.149l-7.399-1.198l-0.483,0.097v-0.336l4.497-3.834l0.969-1.439l-0.823-2.971l-0.581-1.343l-0.725-0.479
				l-7.06,2.204l-0.485-0.24l-0.241-0.622l-1.935-6.471l2.902-0.959l-2.516-9.107l-3.529-12.8l-1.354-4.697l-1.596-5.608
				l-1.79-6.231l8.223-4.937l8.076-4.986l12.089-7.431l4.111-2.491l8.027-4.937l12.089-7.526l8.076-5.034l9.188-5.896l8.996-2.636
				l1.063-0.72l0.773-1.197l1.306-2.877l5.9-12.367l0.241-1.055v-1.149l-0.482-7.67l-0.483-7.19v-1.151l0.241-2.684l1.354-5.465
				l0.194-4.314l0.29-1.342l2.805-4.458l0.483-1.294l0.194-1.438l-0.388-5.993l-0.193-1.438l-0.483-1.438l-2.902-5.847l-0.967-2.109
				l-0.192-0.767v-0.719l0.772-11.025l0.242-1.199l2.902-6.231l0.725-0.958l1.064-0.575l2.271-0.479l10.931-2.685l0.967-0.479
				l0.967-0.863l4.499-5.272L291.066,57l3.483-4.075l2.175-2.253l1.065-0.863l0.241,0.959l0.483,0.958l0.678,0.959l0.966,0.863
				v227.02H238.307z"/>
			<path fill="#E0E0E0" d="M0.52,280.568"/>
			<path fill="#E0E0E0" d="M297.112,47.748l0.773,1.438v0.67l-1.112,0.863l-2.176,2.253l-3.481,4.074l-6.771,7.814l-4.594,5.272
				l-0.967,0.815l-0.968,0.479l-10.929,2.732l-2.321,0.479l-1.064,0.479l-0.677,0.958l-2.902,6.232l-0.289,1.247l-0.822,11.025
				v0.767l0.193,0.767l0.967,2.109l3.144,5.944l0.387,1.342l0.193,1.438l0.388,6.04l-0.146,1.438l-0.483,1.293l-2.902,4.506
				l-0.241,1.342l-0.194,4.315l-1.354,5.464l-0.241,2.684v0.959l0.483,7.287l0.482,7.67v1.15l-0.288,1.103l-5.949,12.271
				l-1.258,2.877l-0.726,1.246l-1.063,0.719l-8.947,2.637l-9.188,5.896l-8.126,4.937l-12.089,7.526l-7.979,4.985l-4.062,2.54
				l-12.09,7.43l-8.125,4.984l-8.222,4.891l-8.994,5.656l-7.93,4.985l-9.673,6.04l-4.691,3.02l-6.432,4.025l-6.383,4.028
				l-6.432,4.026l-6.432,4.026l-4.207,2.588l-5.804,3.644l-6.044,4.026l-0.484,0.145l-0.483-0.096l-2.418-0.672h-0.822l-0.628,0.384
				l-1.354-1.055l-6.48-0.958l-0.581-0.336l-2.127-0.239l-0.726-0.239l-0.581-0.337l-3.24-3.164l-2.321-1.678l-1.209-1.246
				l-0.387-0.287l-0.871,0.479l-0.87-0.191l-1.354,0.145h-0.967l-0.387-0.768l-1.596-2.589l-0.338-0.719v-0.768l0.097-0.718
				l-0.145-0.479l-0.871-0.144l-0.628,0.095l-0.387-0.143l-0.677-0.672h0.145l0.145-0.479l-0.193-0.337l-0.725-0.143l-0.629-0.624
				l-0.338-0.238l-4.014-1.055l-0.339-0.48l-0.338-0.143l0.821-1.152l0.967-0.479l0.194-0.383l0.967-1.438v-0.336l0.484-1.917
				l1.209-2.062l0.822-0.816l0.483-0.958l-0.967-0.766l-0.773-0.336l-0.387-3.932l0.193-1.102H64.5l-0.387-0.719l0.097-0.145
				l0.629-0.383v-1.343l-0.146-0.479l-0.338-0.191l-0.484,0.096v-0.479l0.193-0.191l-0.145-0.479l-0.677-0.958l-0.193-0.479
				l-0.29-1.581l-0.29-0.288l-0.968-0.097v-0.191l0.774-0.479l0.193-0.337v-0.718l-0.484-1.294v-0.624l0.193-0.574l0.387-0.479
				l0.629-0.384l0.29-0.337l0.097-0.478l-0.097-0.624l0.677-0.383l1.161-0.958l0.629-1.343l-0.483-0.959l0.483-0.479l0.871-0.336
				h0.87l0.726-0.238l0.822-0.48l0.58-0.671l0.097-0.815l-0.338-0.479l-0.629-0.479l-0.629-0.335l-0.58-0.145l-0.87-0.479
				l-0.822-0.191l-0.483-0.336l0.193-0.958l0.823-0.48l0.096-0.478l-0.096-0.769v-0.335l0.338-0.384l0.773-0.672l0.194-0.479
				l0.483-0.765l1.306-0.96l0.483-0.959l0.387-0.479l0.629-0.239l0.677-0.144l0.628-0.289l1.354-0.766l0.242,0.144l0.483,0.622
				l0.242,0.193h0.774l1.063-0.768l0.58-0.191l0.629,0.144l1.935,0.959l1.354,0.335l0.677-0.096l0.483-0.576l-0.097-0.958
				l-0.629-0.336l-1.451-0.335l-1.064-0.863l-0.483-0.863l0.773-1.533l0.484-0.815l0.58-0.67l1.451-1.246l1.306-1.533l0.726-0.385
				h0.387l0.822,0.336h0.483l0.581-0.288l0.241-0.479v-0.479l0.291-0.624l0.725-0.959l1.693-1.294l0.87-1.438l1.064-1.103
				l-0.193-0.479l-0.871-0.864l-0.192-0.719l-0.194-0.815l0.629-1.055l0.097-0.574l-0.146-0.336l-0.774-0.146l-0.387-0.479
				l-0.773-1.055l-0.29-0.718v-0.383l0.29-0.481l0.242-0.958v-0.479l-0.193-0.479l-0.58-0.383l-0.242,0.095l-0.338-0.192
				l-0.483-0.67l-0.629-0.288l-0.483-0.382l-0.388-0.577l-0.192-0.766l-0.484-0.192l-0.967-0.097h-1.112l-0.822,0.289h-0.29
				l-0.483-0.958l0.628-0.624l0.967-0.479l0.773-0.479l0.242-0.72v-1.008l0.58-0.286l0.483,0.145l0.484,0.335l0.241-0.24
				l0.145-1.438l-0.871,0.288h-0.967l-0.822-0.288l-0.725-0.671l-0.822-1.582l-0.484-0.383l-0.822,0.479v0.385l-0.097,0.86
				l-0.146,0.48l-0.338,0.336l-0.388,0.143l-2.176,0.097l-0.822-0.479l-0.822,0.335l-2.418-0.288l-0.967,0.097h-0.532l-0.822-0.288
				l-0.581-0.478l-0.628-0.289h-0.484l-0.097-0.766l-0.629-1.439l-0.242-1.15l-0.338-0.672v-2.157l-0.725-1.438l-0.291-1.342
				l-1.112-3.163h0.194l0.242-0.479v-0.671l-0.242-0.288l0.194-0.479l-0.242-0.479l0.338-0.479l0.484-0.671l0.193-0.671
				l-0.097-0.623l-0.29-1.15v-2.109l0.29-0.479l1.741-2.588l0.773-0.767l-0.29-1.199l-1.306-2.78l0.483-1.534l-0.097-0.768
				l-0.145-2.876l0.097-0.574l-0.484-0.384l-1.644-2.397l-0.726-0.383l-0.29-0.239l-0.146-0.479l-0.242-0.288l-0.58,0.096
				l-0.726,0.287l-0.387-0.191l0.242-1.103v-0.479l-0.145-0.288l-1.257-0.767l0.241-0.864l-0.677,0.24v-0.191l0.725-0.24
				l0.774-0.479l0.581-0.575l0.242-0.767l-0.096-0.479l-0.242-0.624v-0.575l0.145-0.335l0.871-0.192l1.45-2.637v-2.108l-0.483-0.959
				l-0.387-0.958l-0.484-0.671l1.742,0.144l0.87-0.191l0.387-0.623l0.193-0.815l0.967-1.438l0.291,0.192l0.725-0.144l0.726-0.192
				l0.725-0.096l0.483,0.48v0.623l-0.193,0.479l0.146,0.623l0.387,0.336l0.629,0.143h1.112l1.064,0.575l2.031,1.582l0.725-0.143
				l0.387-1.247l0.29-3.116l0.773-1.198l1.16-0.48l0.871,0.336l0.581-0.144l0.338-1.582l0.725-0.288l1.451,0.624l0.726-0.24
				l-0.097-1.246l0.242-6.328l0.097-0.67l0.483-0.624v-0.384l-0.483-0.575l0.483-0.479l0.483,0.624l0.387,0.288l0.484,0.191
				l1.45,0.24l0.242-0.096l0.387-0.862l0.967-0.192l2.756,0.479h0.725l2.515-0.479l0.242-0.335v-1.055l-0.145-0.622l-0.291-0.72
				l-0.338-0.671l-0.483-0.479l-0.484-0.24L92.5,85.041l-0.193-0.383l0.483-1.055v-0.719l-0.339-0.575l-0.677-0.335l-0.484-0.575
				l-0.58-2.397v-0.67l0.097-0.672l1.112-1.678l0.145-1.917v-1.918l0.484-1.917l0.484-0.958l0.096-0.862v-0.959l0.242-0.958
				l0.483-0.815l0.581-0.767l0.387-0.862l-0.097-1.103h0.677l6.529,2.397l2.225,0.191l0.677,0.192l0.725,0.287l0.629,0.384
				l1.645,1.534l0.193,0.575v0.959l-0.29,1.438l0.145,0.479l0.726,0.576l0.677,0.383l0.29-0.096l0.291-0.383l0.483-0.575
				l0.725-0.287h0.581l0.483,0.239h0.726l2.273-0.479l0.773-0.096l5.804,1.103l1.451,0.096l5.32-3.356l2.127-0.958l5.9-1.15
				l5.707-2.589l0.967-0.287l4.111-2.588l2.417-0.958h1.161l2.418,0.24l6.771,1.917l1.692,0.959l4.836,5.033l2.129,1.103
				l2.417,0.335l5.804-0.335l0.821-0.24l1.838-0.144l5.465,1.773l1.936-0.095l7.156-1.438l11.461-2.397l7.594-2.876l3.481-2.205
				l1.257-0.479l1.354-0.335l1.306-0.624l7.109-4.984l0.677-0.479l0.774-0.289l0.772-0.143l0.774-0.097l1.646-0.479l4.642-2.732
				l1.741-0.719l6.625-1.15l8.462,1.438l1.597,0.576l0.774,0.191l9.817-0.814l14.508-4.026l4.014-1.055l1.451-0.959l2.611-2.637
				l1.692-2.396l0.483-0.383l0.629-0.479l0.482,0.479v1.055l0.484,0.096l1.113,0.479l0.676-0.575h0.194l0.482,0.958l1.306,0.862
				l0.242,0.144l0.241,0.48l-0.483,2.54l0.678,0.815L297.112,47.748z"/>
			<path fill="#E0E0E0" d="M300.353,46.885l-1.692,0.623l-1.548,0.24l-0.193-1.822l-0.726-0.814l0.484-2.493l-0.241-0.479
				l-0.243-0.192l-1.257-0.959l-0.58-0.814h-0.194l-0.629,0.479l-1.063-0.479h-0.483v-1.198l-0.483-0.479l-0.629,0.575l-0.484,0.335
				l-1.692,2.396l-2.563,2.541l-1.449,0.958l-4.015,1.103l-14.508,3.979l-9.914,0.767l-0.822-0.192l-1.597-0.623l-8.462-1.438
				l-6.625,1.102l-1.741,0.719l-4.642,2.732l-1.646,0.479l-0.774,0.096l-0.772,0.144l-0.774,0.336l-0.677,0.479l-7.109,4.937
				l-1.306,0.623l-1.354,0.288l-1.257,0.479l-3.481,2.109l-7.594,2.972l-11.461,2.397l-7.156,1.438h-1.936l-5.465-1.726
				l-1.838,0.144l-0.772,0.24l-5.804,0.336l-2.418-0.336l-2.225-1.103l-4.836-4.986l-1.692-0.958l-6.771-1.917l-2.417-0.335
				l-1.161,0.096l-2.417,0.958l-4.062,2.541l-0.967,0.288l-5.707,2.588l-5.9,1.198l-2.175,0.959l-5.32,3.355l-1.451-0.095
				l-5.803-1.055h-0.725l-2.273,0.623h-0.629l-0.483-0.24h-0.628l-0.677,0.24l-0.484,0.574l-0.338,0.385l-0.338,0.096l-0.726-0.384
				l-0.677-0.624l-0.097-0.479l0.338-1.438v-0.863l-0.29-0.575l-1.692-1.534l-0.629-0.384l-0.726-0.288l-0.677-0.144l-2.225-0.143
				l-6.528-2.397h-0.677l0.097,1.054l-0.387,0.815l-0.629,0.767l-0.483,0.863l-0.194,0.959v0.958l-0.145,0.815l-0.484,0.958
				l-0.483,1.918v1.917l-0.193,1.917l-1.161,1.678l-0.145,0.671v0.719l0.677,2.396l0.483,0.624l0.677,0.383l0.338,0.623v0.719
				l-0.483,1.055l0.242,0.383l1.161,0.145l0.58,0.288l0.484,0.479l0.29,0.671l0.242,0.719v0.623l0.096,0.959l-0.242,0.479
				L92.5,89.787h-0.58l-2.708-0.479L88.245,89.5l-0.483,0.863l-0.242,0.144l-1.451-0.191l-0.484-0.192l-0.483-0.287l-0.387-0.576
				l-0.484,0.479l0.484,0.479v0.479l-0.484,0.575l-0.097,0.671l-0.242,6.328l0.097,1.246l-0.774,0.24l-1.354-0.576l-0.725,0.336
				l-0.338,1.534l-0.581,0.096l-0.871-0.288l-1.161,0.479l-0.822,1.198l-0.339,3.164l-0.387,1.246l-0.726,0.144l-2.031-1.582
				l-1.063-0.479l-1.112-0.096l-0.581-0.144l-0.338-0.336l-0.097-0.575l0.193-0.479v-0.624l-0.483-0.479h-0.725l-0.726,0.287
				l-0.725,0.192l-0.291-0.144l0.387-0.479l1.645-2.781l0.387-0.287v-1.151l-0.967-3.067l-2.418-4.219l-0.483-0.67l-0.386-0.719
				l-0.339-1.438l-1.112-1.102l-0.483-0.48l-0.338-1.102l0.097-0.671l0.967-1.438l0.677-0.576l0.822-0.096l0.194-0.192l0.483-1.054
				l0.242-0.288l0.967-0.576l0.194-0.383l0.242-0.959l0.483-0.24l0.387-0.479l1.451-0.479l0.29-0.145l1.693-2.013l0.242-0.479h0.387
				l3.869-2.397l0.581-0.096l0.386-0.336l0.483-0.766l0.339-0.864l0.193-0.718v-0.48l-0.338-0.863l-0.145-0.814l0.097-2.78
				l-0.146-0.671l-0.338-0.719l-2.031-3.021l-1.161-1.245l-1.306-0.959l-1.354-0.384l-1.258,0.479l-1.257,0.959l-2.128,2.493
				l-0.484,0.383l-0.58,0.144l-0.339,0.335l-1.16,1.295l-0.58,0.479l-1.354,0.24h-2.902l-1.354,0.479l-0.484,0.383l-0.387,0.815
				l-0.386,0.239l0.193-0.479l-0.387-0.479l-0.387,0.719l-0.483,0.479l-0.387,0.575l0.194,0.671l0.581-0.671l0.773,0.288
				l0.097-0.719l0.339,0.192l0.193,0.479l0.242-0.623l-0.242-0.623l0.484-0.239l0.338,0.622l0.242,0.24l1.112-0.479l0.483,0.192
				l-2.127,0.958l-1.064,0.671l-0.581,0.959v0.48l0.483-0.24l1.693-1.773l0.483-0.288l0.58-0.144l-1.354,1.343l-0.967,1.917
				l-0.097,1.055l-0.629,0.288l-0.581,0.384h-0.338l-1.112,0.096l-0.483-0.096l-0.967-1.055l-0.387-0.192l-0.483,0.144l-0.387,0.287
				l-0.096,0.48h0.338l1.452,0.671l-1.452-0.479l-1.547-0.191l-1.161,0.479l-0.291,0.576l-1.063,0.383l-0.968,0.767v0.144
				l-0.483-0.288l-0.483-0.815l-0.871-0.383l-8.801-5.705l-0.967-0.335l-1.064-0.815l-0.677-0.288l-0.58-0.095l-1.161,0.095
				l-0.484,0.24l0.291-0.959l-0.484-0.239l-1.451-1.583l-2.805-1.629l-0.193,0.336l-0.967-0.624l-1.596,0.288l-2.417,0.959
				l-1.113,0.19l-0.483,0.145l-0.967,0.575l-0.291,0.144l-0.338,0.814l-0.146,0.193l-1.112,0.575l-3.24,2.684l-3.965,2.252
				l-1.112,0.958l-3.24,3.74L6.71,75.981L6.372,76.27l-0.726,0.335L4.34,77.851l-1.257,0.575l-0.145,1.15v2.589l-0.822,0.479
				l-1.112,0.24L0.52,83.028V-4.166h299.833V46.885z"/>
			<path fill="#E0E0E0" d="M0.52,280.568"/>
			<path fill="#E0E0E0" d="M63.872,211.542l-1.838,1.056l-0.581,0.67l-0.773,1.438l-0.629,0.671l-0.387,0.24l-1.063,0.382
				l-1.161,0.192l-1.451,1.439l-0.726,0.479l-1.112,0.287l-0.338,0.336l0.097,0.959l-0.677-0.479l-0.87-1.439l-0.484,0.098
				l-0.822,1.581l-0.29,0.958l-0.145,2.157l-0.242,1.152l-0.387,0.719l-0.726,1.149l-0.193,0.673h-1.161l-1.838,0.766l-2.128,0.479
				h-0.483l-0.29-0.479l-0.242-0.574l-0.774-0.815l-0.338-0.192h-0.484l-1.451,0.479l-0.967-0.238l-0.821,0.478l-2.902-0.333v-0.241
				l-0.242-0.287l0.629-0.958l0.483-0.384l0.774-0.385l0.726-1.293l-0.194-0.289h0.387l0.146,0.289l1.209-2.397l0.193-1.294
				l-0.774-1.198l0.822-0.576l0.629-0.766l0.725-1.919l0.145-0.573l0.097-1.199l0.146-0.576l0.725-0.957l0.242-0.577l-0.145-0.575
				l1.935-1.437l0.967-0.959l0.483-1.293l0.146-0.481l1.451-3.834l-0.194-0.336l0.629-0.479l0.483-1.774l0.677-0.383v-0.479
				l1.451-3.548l0.242-0.815l0.145-2.157l-0.145-0.479l-0.338-0.814l0.242-0.288l0.387-0.144l0.484,0.144l0.628,0.383l0.677-0.095
				h0.871l0.483-0.096l0.29-0.289l0.581-1.245l-0.242-0.287l0.29-0.336l0.484-0.958l0.338-0.479h0.822l0.193-0.24v-0.384
				l-0.483-0.479v-1.103l0.677-1.917l0.193-1.438l-0.145-0.479l-0.484-0.961l-0.096-0.622l0.096-1.438l0.146-0.334l0.483-0.337
				l0.145-0.239v-1.342l0.243-1.343l0.483-1.197l0.87-0.768l0.677,0.479l0.628-0.815l0.581-1.438l0.483-0.863l2.032-1.102
				l0.677-0.815l-0.629-1.104v-0.285l0.677,0.239l2.901-0.671l1.935-1.773l0.677-0.384l0.483-0.384l0.145-0.624l0.097-2.062
				l-0.097-0.86l-0.193-0.816l-0.483-0.48h0.483l0.628,0.193l0.581,0.479l0.822,0.239h1.79l2.418,0.191l0.871-0.479l0.821,0.575
				l2.177-0.096l0.386-0.145l0.339-0.382l0.145-0.479v-0.816l0.145-0.334l0.822-0.479l0.483,0.334l0.871,1.583l0.725,0.671
				l0.87,0.287h0.968l0.821-0.239l-0.144,1.438l-0.291,0.192l-0.386-0.337l-0.483-0.142l-0.581,0.286l-0.096,0.479v0.72
				l-0.146,0.672l-0.677,0.479l-0.967,0.478l-0.677,0.721l0.483,0.862h0.29l0.823-0.191l1.063-0.096l0.968,0.096l0.483,0.191
				l0.242,0.767l0.387,0.574l0.483,0.385l0.58,0.288l0.483,0.671l0.339,0.191l0.194-0.097l0.58,0.479l0.193,0.336v0.479l-0.29,0.96
				l-0.242,0.479l-0.097,0.336l0.291,0.72l0.774,1.102l0.387,0.479l0.773,0.097l0.146,0.335l-0.097,0.575l-0.628,1.055l0.193,0.815
				l0.194,0.67l0.871,0.815l0.193,0.479l-0.967,1.104l-0.967,1.438l-1.644,1.342l-0.726,0.958l-0.242,0.575v0.479l-0.29,0.48
				l-0.581,0.24h-0.483l-0.822-0.288l-0.387-0.097l-0.774,0.385l-1.306,1.533l-1.451,1.246l-0.628,0.67l-0.484,0.815l-0.87,1.533
				l0.483,0.863l1.112,0.863l1.451,0.289l0.629,0.334v0.959l-0.483,0.479l-0.629,0.144l-1.451-0.336l-1.838-0.958l-0.629-0.144
				l-0.581,0.191l-1.112,0.768h-0.822l-0.29-0.191l-0.484-0.624l-0.193-0.144l-1.354,0.768l-0.628,0.287l-0.677,0.144l-0.629,0.239
				l-0.387,0.479l-0.483,0.96l-1.258,0.957l-0.483,0.767l-0.194,0.479l-0.725,0.624l-0.242,0.336v1.63l-0.871,0.479l-0.145,0.959
				l0.484,0.287l0.773,0.192l0.871,0.48l0.483,0.143l0.677,0.383l0.629,0.479l0.338,0.479l-0.146,0.863l-0.628,0.67l-0.774,0.479
				l-0.677,0.29h-0.87l-0.871,0.238l-0.484,0.574l0.484,0.96l-0.581,1.342l-1.161,0.959L63.872,211.542z"/>
			<path fill="#E0E0E0" d="M15.995,280.568l0.968-1.917l1.112-2.204l0.726-1.103l1.306-3.836v-0.862l0.58-0.24l3.385-9.299
				l2.805-12.223l0.241-0.479l0.291-1.917l0.193-0.576v-0.622l0.967-3.596l0.29-3.931l0.339-0.863l0.58-0.288l0.483,0.145
				l0.677,0.479l0.484,0.144h0.387l1.354-1.438l0.193-0.337l0.484-1.629v-0.575l-0.484-0.191l0.242-0.672l0.338-2.684l0.484-1.438
				l0.242-0.816l-0.097-0.72l0.484-0.575l-0.193-0.335l0.242-0.096l2.902,0.336l0.967-0.48l0.968,0.24l1.354-0.479h0.484
				l0.386,0.238l0.822,0.815l0.242,0.479l0.338,0.479l0.387,0.096l2.128-0.479l1.838-0.72l1.112-0.096l0.193-0.67l0.726-1.198
				l0.338-0.768l0.193-1.15l0.146-2.157l0.29-0.959l0.871-1.581h0.483l0.871,1.294l0.677,0.478l-0.096-0.957l0.338-0.336
				l1.161-0.239l0.774-0.479l1.451-1.437l1.161-0.24l1.063-0.384l0.484-0.24l0.58-0.671l0.773-1.438l0.581-0.672l-0.193,0.479v0.718
				l-0.29,0.816l-0.967,0.767l-0.774,0.336l1.451,0.958l-1.306,1.774l0.193,0.336l0.967,0.815l0.145,2.06l0.822,0.48l0.097,1.293
				l-0.483,0.863l-0.388,0.623v0.672l1.451,0.622l-0.194,0.575l0.387,4.17l0.193,0.575l0.822,1.438l-0.483,0.96l-0.29,0.096
				l-0.677,1.103l-0.483,1.344l0.146,0.478l-0.291,1.2l-1.934,2.155l-0.967,1.439l-0.726,0.143l-2.079,1.295l-1.257,1.054
				l-0.629,0.24l-0.871-0.096l-0.677,0.479l-0.484,0.719l-0.677,0.385l-0.097,0.479l0.146,0.336l0.29,0.192v0.286h-0.241v0.336
				l0.193,0.383v1.152l0.291,0.479l-0.242,0.335v-0.335l-0.338,0.622l-0.194-0.287l0.097,0.959l0.097,0.239h-0.484v0.287h0.29
				l0.339,0.623l0.29,0.385v0.288l-0.58,0.334l-0.193,0.575l0.483,0.289v0.383l-0.483,0.287l0.193,0.288l-0.483,0.286l0.242,0.337
				h-0.339v0.238l0.242,0.479l-0.483,0.145l0.097,0.479l0.484,0.671l-3.966-1.102h-0.822l-0.967-0.336l-0.146-1.103v-1.343
				l-0.29-1.055l-0.967-0.719l-1.161-0.143h-2.418l-0.629-0.24l-1.063-0.96l-0.484-0.239H37.66l-0.483,0.385l-0.967,1.055
				L35,252.335l-1.113,0.479l-0.967,0.671l-0.822,1.295l-0.677,3.02l-0.29,0.959l-0.774,0.287l-0.194,0.575l-0.193,1.438
				l-0.097,0.479l0.483,0.192l0.194,0.335v0.48l-0.097,0.479l-0.291,0.575l-1.45,1.247l-0.581,0.621v0.48l0.483,1.438l0.194,0.719
				l0.338,4.122v0.864l-0.145,0.959l0.097,0.479l-0.338,1.582l0.725,1.773l0.387,1.438l-1.064,0.624l-0.967,0.287l-0.338,0.672
				h-11.51V280.568z"/>
			<path fill="#E0E0E0" d="M50.041,280.568l-0.677-2.875l0.096-0.336l0.484-0.19l0.242-0.624l-0.193-0.479l-0.145-1.438
				l-0.387-1.055v-2.013l0.194-0.767l0.628-0.48l-0.387-0.574v-0.479l0.677-1.055l-0.194-0.48l0.483-0.383l-0.145-0.862l0.676-2.781
				h-0.483l0.194-0.479l0.338-0.191l-0.29-0.479l-0.193-0.863v-0.768l0.242-0.479l-0.291-0.671v-1.344l-0.097-0.718h0.242v0.288
				h0.242l-0.146-0.769l-0.483-0.623l-0.145-0.479l0.483-0.143l-0.194-0.479v-0.192h0.291l-0.338-0.334l0.484-0.289l-0.194-0.287
				l0.483-0.287v-0.337l-0.483-0.239l0.194-0.575l0.58-0.334v-0.24l-0.339-0.336l-0.387-0.577h-0.338v-0.238h0.484v-0.287
				l-0.146-0.959l0.194,0.288l0.29-0.623v0.287l0.291-0.335l-0.242-0.48v-1.197l-0.243-0.384v-0.336h0.243v-0.287l-0.291-0.192
				l-0.144-0.287l0.097-0.48l0.628-0.479l0.484-0.67l0.726-0.48l0.87,0.096l0.629-0.288l1.257-1.103l2.08-1.246l0.677-0.095
				l0.387-0.145l0.338,0.145l0.339,0.479l4.014,0.96l0.338,0.286l0.628,0.624l0.677,0.095l0.146,0.337l-0.194,0.479h-0.194
				l0.629,0.672l0.339,0.191l0.58-0.097l0.823,0.097l0.145,0.479l-0.145,0.767v0.863l0.386,0.72l1.596,2.587l0.339,0.719h0.967
				l1.451-0.095l0.822,0.238l0.822-0.478l0.339,0.191l1.209,1.197l2.418,1.678l3.192,3.164l0.483,0.336l0.774,0.238l2.127,0.24
				l0.581,0.384l6.48,0.959l1.354,1.055l0.629-0.384h0.822l2.418,0.672h0.483l0.483-0.096l6.093-4.028l5.803-3.642l4.159-2.589
				l6.432-4.026l6.432-4.026l6.384-4.076l6.432-4.074l4.739-3.018l9.673-6.042l7.882-4.984l9.044-5.655l1.74,6.231l1.548,5.655
				l1.306,4.697l3.529,12.655l2.563,9.108l-2.901,0.958l1.935,6.52l0.241,0.623l0.484,0.239l7.012-2.013l0.774,0.479l0.629,1.295
				l0.822,2.972l-0.969,1.438l-4.448,3.834v0.337l-0.388,0.095l-0.726,0.576l-4.448,4.312l-1.258,0.48l-4.353,1.295l-8.365,2.396
				l-4.207,1.294H50.041L50.041,280.568z"/>
			<path fill="#E0E0E0" d="M59.422,241.501l-0.483,0.146l1.064-1.439l1.934-2.155l0.291-1.151l-0.146-0.575l0.483-1.295l0.677-1.054
				h0.242l0.484-0.958l-0.774-1.535l-0.193-0.575l-0.387-4.17l0.146-0.577l-1.451-0.621v-0.672l0.484-0.623l0.483-0.862
				l-0.146-1.247l-0.822-0.479l-0.097-2.063l-0.967-0.766l-0.29-0.288l1.209-1.726l-1.451-0.958l0.87-0.383l0.967-0.768l0.194-0.815
				v-0.718l0.241-0.479l1.838-1.055l0.097,0.671l-0.146,0.48l-0.338,0.285l-0.629,0.481l-0.387,0.383l-0.193,0.622v0.623
				l0.483,1.247v0.814l-0.193,0.336l-0.773,0.479v0.192h0.967l0.29,0.335l0.242,1.581l0.146,0.479l0.677,0.96l0.097,0.479
				l-0.29,0.192l0.097,0.479l0.483-0.094l0.291,0.191l0.193,0.478v1.343l-0.677,0.336l-0.097,0.094l0.387,0.673h-1.257l-0.193,1.198
				l0.387,3.979l0.774,0.289l0.967,0.767l-0.483,0.958l-0.822,0.766l-1.161,2.062l-0.483,1.917v0.288l-0.967,1.535l-0.291,0.382
				l-0.967,0.48L59.422,241.501z"/>
			<path fill="#E0E0E0" d="M27.457,280.568l0.29-0.67l0.967-0.288l1.112-0.576l-0.387-1.437l-0.726-1.772l0.29-1.583l-0.146-0.385
				l0.097-1.055v-0.862l-0.387-4.074l-0.194-0.767l-0.483-1.438v-0.48l0.483-0.574l1.548-1.246l0.29-0.576l0.146-0.479l-0.097-0.481
				l-0.241-0.382l-0.484-0.145l0.145-0.623l0.194-1.438l0.194-0.479l0.773-0.383l0.291-0.96l0.677-3.02l0.774-1.246l0.967-0.624
				l1.209-0.479l1.209-0.72l0.968-1.054l0.483-0.385h0.821l0.484,0.288l1.112,0.959l0.677,0.24h2.418l1.063,0.094l0.968,0.721
				l0.387,1.055v1.342l0.097,1.103l0.967,0.336h0.871l3.869,1.15l0.193,0.72h-0.241v-0.336h-0.242l0.146,0.718v1.343l0.291,0.623
				l-0.146,0.48v0.861l0.097,0.815l0.241,0.479l-0.338,0.241l-0.193,0.479h0.483l-0.725,2.732l0.096,0.862l-0.483,0.336l0.194,0.479
				l-0.677,1.102v0.479l0.338,0.575l-0.677,0.479l-0.242,0.769l0.097,2.012l0.386,1.054l0.146,1.438l0.193,0.479l-0.242,0.575
				l-0.483,0.145l-0.097,0.334l0.677,2.877H27.457V280.568z"/>
			<path fill="#E0E0E0" d="M161.898,280.568l4.206-1.246l8.415-2.396l4.352-1.342l1.209-0.48l4.449-4.312l0.726-0.576l0.387-0.095
				l0.484-0.145l7.398,1.15l7.496,1.151l7.448,1.149l7.397,1.15l3.047,0.479l12.864,2.204l2.08,0.768l2.079,1.151l2.419,1.343
				h-76.41L161.898,280.568z"/>
			<path fill="#E0E0E0" d="M0.52,119.267l0.725-0.479l2.031-0.671l1.934-1.773l0.968-0.144l2.127-0.479l1.934-0.575l1.548-0.958
				l6.771-2.781l1.209-0.479h0.483l-0.483,0.479l-0.193,1.295l-0.096,0.288l-1.064,0.24l-0.193,0.144l-3.53,2.109l-3.289,2.636
				l-7.931,4.314l-1.064,0.863l-0.967,0.958L0.81,125.69l-0.145,0.288v-6.711H0.52z"/>
			<path fill="#E0E0E0" d="M0.52,141.557l0.193,0.192l0.387,0.336H0.52v-0.48V141.557z"/>
			<path fill="#E0E0E0" d="M300.353,53.596l-0.967-0.864l-0.679-0.958l-0.482-0.959l-0.339-0.959v-0.67l-0.82-1.438l1.546-0.24
				l1.693-0.623v6.711H300.353z"/>
		</g>
		<g>
			<path fill="#FFFFFF" d="M167.023,11.732l-0.387,0.289v2.12l-0.967,0.771l-0.484-0.242h-0.58l-0.967,0.385l0.483,0.964
				l0.968,1.252l-0.677,0.289l-1.791-1.204l-2.078-0.819l-2.032-0.482l-1.305-0.385l-0.629-0.626v-0.963l-0.484-0.675l-0.629-0.723
				l-0.483-0.963l-0.58-0.482l-0.291-0.482l0.341-0.771l0.724-0.145l1.113,0.626l0.241,0.771l0.29,0.626l0.678-0.241l0.289-1.445
				l-0.241-2.168l-0.097-1.108l0.87,0.963l0.968,0.29l0.386-0.386h0.872l0.483,0.241l0.337,0.819l0.34,0.579l-0.677-0.145
				l-0.678-0.096l-0.192,0.819l-0.339,0.29l-0.678,0.192l-0.387,0.964l-0.193,0.964l0.241,1.156v0.963l0.388,0.482l0.29-0.482
				l0.386-0.481l0.484-0.289l1.064-0.338l1.208-0.578l0.193-0.963l0.484-0.579l0.87-0.096l0.967-0.82l1.258-0.289l0.968-0.482V7.781
				l0.29-0.625l2.61,0.192l1.211-0.482l-0.87-1.541l-1.21-1.542l-0.483-0.819l-0.29-1.686l0.29-0.481l0.628,1.156l0.29,0.964
				l1.161,2.167l1.692,1.782h1.113l0.192-0.481l-0.821-1.397l0.821-0.771l1.208,0.096l0.969-0.482l0.097-1.108l-0.193-0.481
				l0.677-0.385l0.338-0.097l0.581,0.097l0.483-0.482V0.652l-1.644,0.963l-0.098-1.638l0.629-0.626l0.87-0.819l0.871,0.097
				l0.339-0.819l0.482-0.338l0.242-1.444l0.629,0.818l-0.146,1.205v1.204l-0.869,0.916l0.291,0.481v0.819l-0.193,1.252l-0.87,0.096
				l-0.679,0.964l0.241,0.674l-0.772,0.482l0.483,0.144l0.629-0.144l0.193,0.481l-0.677,0.241l-0.677-0.482l-0.871,0.386H175.1
				l-0.241,0.385l1.45,0.964v0.771l-1.596-0.097l-2.031,0.626l-0.967,0.289l-1.452,0.241h-0.967l-0.772,0.241L167.023,11.732z"/>
			<path fill="#FFFFFF" d="M54.683,238.157l-0.097,0.723l0.097,0.482l-0.242,1.204v0.481l0.193,0.481l-0.241,0.146v0.723
				l-1.452,1.444h-0.677l-0.291-0.818l-0.096-0.819l-0.628-0.577l-0.484-0.965l-0.725-1.3l0.29-1.349l1.257-1.253l1.354-0.771
				l0.823,0.098l0.967,0.962v0.483L54.683,238.157z"/>
			<path fill="#FFFFFF" d="M176.067-4.166l0.677,0.675l1.113,0.289l0.579-0.193l1.209-0.337h0.822l-1.645,1.204l-2.999,0.482
				L175.1-1.275l-0.58,0.241l0.726-1.446v-0.963l-0.484-0.289l-0.677-0.193l-0.338-0.289h2.225L176.067-4.166z"/>
			<path fill="#FFFFFF" d="M164.654,31.677l-0.339,0.385v0.963l-0.096,1.204l-0.871,0.675l-0.484-0.192h-0.628l-0.872,0.385
				l0.484,0.963l0.871,1.204l-0.629,0.241l-1.741-1.156l-2.079-0.819l-1.934-0.386l-1.355-0.481l-0.677-0.626V33.17l-0.482-0.723
				l-0.582-0.819l-0.483-0.963l-0.628-0.482l-0.242-0.481l0.339-0.771l0.677-0.097l1.064,0.626l0.193,0.819l0.338,0.674l0.629-0.289
				l0.291-1.445l-0.243-2.216l-0.096-1.108l0.87,0.964l0.87,0.337l0.483-0.482h0.823l0.483,0.337l0.338,0.723l0.339,0.626
				l-0.58-0.192h-0.677l-0.34,0.867l-0.338,0.289l-0.773,0.192l-0.388,0.964l-0.241,0.963l0.241,1.156v0.867l0.483,0.578
				l0.292-0.481l0.337-0.481l0.483-0.289l1.065-0.337l1.256-0.482l0.291-1.06l0.483-0.578l0.822-0.096l0.967-0.819l1.258-0.336
				l0.967-0.482v-0.867l0.241-0.578l2.661,0.145l1.16-0.481l-0.87-1.542l-1.21-1.445l-0.387-0.868l-0.338-1.686l0.338-0.481
				l0.629,1.156l0.242,1.108l1.208,2.119l1.692,1.734h1.211l0.144-0.481l-0.822-1.205l0.968-0.818l1.161,0.144l0.967-0.482
				l0.097-1.06l-0.241-0.385l0.725-0.481h0.919l0.484-0.482l-0.097-0.674l-1.548,0.963l-0.098-1.638l0.484-0.916l0.967-0.818
				l0.87,0.144l0.291-0.867l0.484-0.289l0.289-1.445l0.629,0.771l-0.242,1.253v1.252l-0.774,0.723l0.292,0.579v0.771l-0.193,1.252
				h-0.968l-0.581,0.963l0.242,0.723l-0.822,0.578l0.483,0.096l0.726-0.192l0.194,0.481l-0.774,0.241l-0.678-0.386l-0.821,0.289
				h-1.451l-0.193,0.482l1.451,0.964l-0.099,0.626h-1.594l-2.032,0.626l-0.966,0.29l-1.354,0.193h-1.113l-0.676,0.192
				L164.654,31.677z"/>
			<path fill="#FFFFFF" d="M163.01,105.048h0.483l-0.483,1.06v0.481l-1.451,0.771v-0.337h-0.241l-0.29,0.385l-1.692,1.445h-0.291
				l-0.338-0.482l-0.774,0.241l-0.387-0.097v-0.241l-0.338-0.819l-0.291-0.578l-0.338,0.481l-0.677,0.481l-0.146,0.29l0.241,1.349
				v0.626h-0.241l-0.146-0.723l-0.242-0.193h-0.822l-0.289,0.337l-0.34,0.096l-0.144-0.241l0.096-0.338l0.484-0.385l0.483-1.252
				l-0.291-0.626l-0.724-0.674l-0.484-0.193h-0.484l-0.822-0.386l-1.063-1.686l-0.677-0.723l-0.484-0.192l-2.03-0.578l-0.967-1.061
				l0.242-0.385l-0.193-0.337l-0.242-0.097l-0.484,0.241l-0.483-0.337v-0.241l0.483-0.337l-0.29-0.29l-0.968-0.481l-0.967-1.59
				l-0.242-0.674l-0.193-1.638l0.339-1.446l0.628-1.205l1.354-1.686l0.484-0.241v-1.06l0.773-0.722l0.967-0.481l0.339,0.241h0.29
				l0.629-1.734v-1.831l0.483,0.24h0.242l0.967,2.409l0.097,1.301l-0.967,0.481l-0.822,0.338l-1.112,0.771l-0.677,0.963l0.387,1.06
				l-1.306,1.301l-0.242,0.385l0.097,0.578l0.483,1.59l0.242,0.578l0.291,0.241l0.628,0.29l0.484,0.481l0.097,0.626l0.388,0.771
				l0.967,0.482h0.483l0.291,0.481l0.387,0.144l0.968-0.096v0.289l0.483,0.819l0.484,0.145l2.418,1.156l0.822,0.867l0.677,0.096
				l0.483-0.385l0.289-1.35l0.484-0.336l0.194,0.963h0.241v-0.385h0.193l0.29,0.867l0.483,0.867l0.484,0.289l0.096,0.771
				l0.291-0.193l0.289-0.481l0.678,0.579l0.629-0.241l0.482-0.337v0.481L163.01,105.048z"/>
		</g>
		<g>
			<path fill="none" stroke="#A8B0B2" stroke-width="1.0201" d="M171.375,216.189l8.222-4.914l8.076-5.011l12.092-7.467l4.109-2.505
				l8.028-4.962l12.09-7.563l8.076-5.06l9.188-5.926l8.996-2.648l1.063-0.724l0.774-1.203l1.305-2.891l5.852-12.431l0.241-1.06
				v-1.156l-0.482-7.708l-0.483-7.227v-1.156l0.241-2.697l1.354-5.493l0.194-4.336l0.29-1.348l2.805-4.481l0.483-1.301l0.194-1.445
				l-0.388-6.022l-0.193-1.445l-0.483-1.445l-2.902-5.877 M67.934,102.784l0.291,0.193l0.725-0.144l0.726-0.193l0.725-0.097
				l0.483,0.482v0.626l-0.193,0.482l0.146,0.626l0.387,0.337l0.629,0.145h1.112l1.064,0.578l2.031,1.59l0.725-0.145l0.387-1.252
				l0.29-3.13l0.773-1.205l1.16-0.482l0.871,0.337l0.581-0.145l0.338-1.589l0.725-0.29l1.451,0.627l0.726-0.241l-0.097-1.252
				l0.242-6.359l0.097-0.674l0.483-0.626v-0.386l-0.483-0.578l0.483-0.481l0.483,0.626l0.387,0.29l0.484,0.192l1.45,0.241
				l0.242-0.096l0.387-0.867l0.967-0.192l2.756,0.482h0.725l2.515-0.482l0.242-0.338v-1.06l-0.145-0.626l-0.291-0.722l-0.338-0.675
				l-0.483-0.482l-0.484-0.24L92.5,85.489l-0.193-0.385l0.483-1.061v-0.722l-0.339-0.578l-0.677-0.337l-0.484-0.578l-0.58-2.409
				v-0.674l0.097-0.674l1.112-1.687l0.145-1.926v-1.928l0.484-1.927l0.484-0.963l0.096-0.868v-0.963l0.242-0.964l0.483-0.819
				l0.581-0.771l0.387-0.867l-0.097-1.109h0.677l6.529,2.409l2.225,0.193l0.677,0.193l0.725,0.289l0.629,0.385l1.645,1.542
				l0.193,0.578v0.964l-0.29,1.445l0.145,0.481l0.726,0.578l0.677,0.386l0.29-0.097l0.291-0.385l0.483-0.579l0.725-0.289h0.581
				l0.483,0.24h0.726l2.273-0.481l0.773-0.096l5.804,1.107l1.451,0.097l5.32-3.373l2.127-0.963l5.9-1.156l5.707-2.602l0.967-0.289
				l4.111-2.601l2.417-0.964h1.161l2.418,0.241l6.771,1.927l1.692,0.963l4.836,5.059l2.129,1.108l2.417,0.337l5.804-0.337
				l0.821-0.241l1.838-0.144l5.465,1.782l1.936-0.095l7.156-1.446l11.461-2.408l7.594-2.891l3.481-2.216l1.257-0.482l1.354-0.337
				l1.306-0.626l7.109-5.01l0.677-0.482l0.774-0.289l0.772-0.145l0.774-0.096l1.646-0.481l4.642-2.746l1.741-0.723l6.625-1.156
				l8.462,1.445l1.597,0.579l0.774,0.192l9.817-0.818l14.508-4.047l4.014-1.06l1.451-0.963l2.611-2.65l1.692-2.409l0.483-0.385
				l0.629-0.481l0.482,0.481v1.06l0.484,0.096l1.113,0.482l0.676-0.578h0.194l0.482,0.963l1.306,0.867l0.242,0.145l0.241,0.481
				l-0.483,2.553l0.678,0.818l0.145,1.831 M296.967,47.96l1.548-0.241l1.693-0.626 M238.307,281.997l-2.419-1.349l-2.03-1.156
				l-2.08-0.771l-12.864-2.218l-3.047-0.48l-7.447-1.156l-7.495-1.156l-7.447-1.156l-7.399-1.204l-0.483,0.096 M59.374,242.687
				l0.387,0.144l0.338,0.482l4.014,0.963l0.338,0.291l0.628,0.625l0.677,0.097l0.146,0.338l-0.194,0.48h-0.193l0.628,0.674
				l0.338,0.193l0.581-0.096l0.822,0.096l0.146,0.481l-0.146,0.772v0.865l0.387,0.723l1.596,2.603l0.338,0.722h0.968l1.45-0.097
				l0.823,0.242l0.822-0.482l0.338,0.192l1.209,1.205l2.418,1.686l3.192,3.18l0.483,0.337l0.774,0.241l2.128,0.241l0.58,0.385
				l6.48,0.964l1.354,1.061l0.628-0.386h0.823l2.417,0.674h0.484l0.484-0.096l6.093-4.048l5.803-3.66l4.16-2.603l6.432-4.046
				l6.432-4.047l6.383-4.096l6.432-4.094l4.739-3.035l9.673-6.07l7.882-5.012l9.043-5.684 M259.875,98.641l-0.967-2.12l-0.193-0.771
				v-0.674l0.772-11.08l0.242-1.204l2.902-6.263l0.725-0.963l1.063-0.578l2.273-0.482l10.929-2.698l0.968-0.481l0.968-0.868
				l4.498-5.299l6.769-7.853l3.483-4.095l2.176-2.264l1.064-0.867 M49.992,281.997l-0.677-2.891l0.097-0.337l0.483-0.193
				l0.242-0.625l-0.193-0.482l-0.145-1.445l-0.387-1.06v-2.023l0.193-0.771l0.628-0.482l-0.387-0.577v-0.482l0.677-1.06
				l-0.194-0.482l0.483-0.385l-0.145-0.868l0.676-2.794h-0.483l0.194-0.481l0.338-0.192l-0.29-0.481l-0.194-0.866v-0.772l0.242-0.48
				l-0.291-0.676v-1.35l-0.096-0.722h0.242v0.288h0.242l-0.146-0.77 M51.104,258.536l-3.966-1.109h-0.677l-0.967-0.336l-0.146-1.107
				v-1.35l-0.29-1.061l-0.967-0.722l-1.161-0.146h-2.418l-0.629-0.24l-1.063-0.963l-0.484-0.242H37.66l-0.483,0.385l-0.967,1.061
				L35,253.43l-1.113,0.482l-0.967,0.673l-0.822,1.301l-0.677,3.035l-0.29,0.964l-0.774,0.288l-0.194,0.579l-0.193,1.445
				l-0.097,0.48l0.483,0.193l0.194,0.337v0.482l-0.097,0.481l-0.291,0.578l-1.45,1.253l-0.581,0.627v0.481l0.483,1.445l0.194,0.722
				l0.338,4.145v0.867l-0.145,0.962l0.097,0.482l-0.338,1.59l0.725,1.782l0.387,1.445l-1.064,0.626l-0.967,0.291l-0.338,0.673
				 M63.872,212.624l-1.838,1.06 M62.034,213.684l-0.193,0.481v0.724l-0.291,0.818l-0.967,0.771l-0.774,0.338l1.451,0.963
				l-1.306,1.784l0.193,0.336l0.967,0.818l0.145,2.072l0.822,0.481l0.097,1.301l-0.483,0.867l-0.387,0.627v0.676l1.451,0.625
				l-0.194,0.577l0.387,4.191l0.194,0.579l0.822,1.444l-0.484,0.965l-0.29,0.095l-0.677,1.109l-0.484,1.348l0.145,0.482l-0.29,1.205
				l-1.934,2.168l-0.967,1.444 M185.594,271.591l-0.387,0.097l-0.726,0.577l-4.448,4.338l-1.258,0.481l-4.352,1.3l-8.368,2.409
				l-4.207,1.301 M59.036,242.88l0.386-0.146 M68.756,158.909h0.484l0.628,0.193l0.58,0.48l0.822,0.24h1.79l2.418,0.192l0.87-0.48
				l0.823,0.578l2.176-0.098l0.387-0.143l0.338-0.387l0.146-0.481v-0.818l0.146-0.338l0.822-0.482l0.483,0.338l0.87,1.59
				l0.726,0.675l0.871,0.289h0.967l0.822-0.242l-0.146,1.446l-0.29,0.193l-0.387-0.338l-0.483-0.145l-0.58,0.289l-0.097,0.482v0.723
				l-0.145,0.674l-0.677,0.481l-0.967,0.481l-0.677,0.724l0.484,0.866h0.29l0.822-0.192l1.064-0.096l0.967,0.096l0.483,0.192
				l0.242,0.772l0.387,0.576l0.484,0.387l0.58,0.288l0.484,0.675l0.338,0.192l0.194-0.096l0.58,0.481l0.194,0.338v0.48l-0.291,0.964
				l-0.242,0.481l-0.097,0.338l0.29,0.723l0.773,1.108l0.388,0.481l0.773,0.097l0.146,0.337l-0.097,0.577l-0.629,1.06l0.194,0.82
				l0.193,0.673l0.87,0.819l0.193,0.481l-0.967,1.108l-0.967,1.445l-1.644,1.35l-0.725,0.963l-0.243,0.579v0.481l-0.29,0.482
				l-0.58,0.241h-0.484l-0.822-0.291l-0.387-0.095l-0.773,0.386l-1.306,1.541l-1.451,1.253l-0.629,0.674l-0.483,0.818l-0.871,1.543
				l0.483,0.865l1.113,0.867l1.451,0.291l0.628,0.335v0.966l-0.483,0.48l-0.629,0.146l-1.451-0.338l-1.837-0.964l-0.629-0.144
				l-0.58,0.192l-1.112,0.771h-0.822l-0.29-0.192l-0.483-0.626l-0.194-0.145l-1.354,0.771l-0.628,0.289l-0.677,0.145l-0.628,0.241
				l-0.387,0.48l-0.483,0.964l-1.257,0.963l-0.484,0.772l-0.193,0.48l-0.726,0.627l-0.242,0.338v1.636l-0.87,0.482L66,203.086
				l0.483,0.289l0.774,0.193l0.871,0.481l0.483,0.144l0.677,0.385l0.629,0.482l0.339,0.481l-0.146,0.868l-0.629,0.674l-0.773,0.482
				l-0.677,0.288H67.16l-0.871,0.242l-0.483,0.576l0.483,0.966l-0.58,1.346l-1.161,0.966l-0.677,0.337 M297.935,49.791v-0.675
				l-0.822-1.445 M35.097,226.981l2.902,0.336l0.967-0.48l0.968,0.24l1.354-0.481h0.484l0.386,0.241l0.822,0.817l0.242,0.482
				l0.338,0.482l0.387,0.095l2.128-0.48l1.838-0.675l1.112-0.096l0.193-0.675l0.726-1.205l0.338-0.771l0.193-1.155l0.146-2.167
				l0.29-0.965l0.871-1.589h0.483l0.871,1.301l0.677,0.48l-0.096-0.962l0.338-0.338l1.161-0.241l0.774-0.48l1.451-1.446l1.161-0.24
				l1.063-0.386l0.484-0.24l0.58-0.676l0.773-1.444l0.581-0.676 M185.642,271.495v-0.337l4.449-3.855l0.969-1.444l-0.823-2.987
				l-0.581-1.349l-0.725-0.482l-7.06,2.168l-0.485-0.24l-0.241-0.627l-1.935-6.503l2.902-0.964l-2.516-9.153l-3.529-12.862
				l-1.354-4.722l-1.596-5.636l-1.79-6.265 M59.036,242.83l-0.726,0.145l-2.079,1.301l-1.257,1.06l-0.629,0.241l-0.871-0.097
				l-0.677,0.481l-0.484,0.724l-0.677,0.386l-0.097,0.481l0.146,0.336l0.29,0.193v0.289h-0.241v0.338l0.193,0.385v1.157l0.291,0.481
				l-0.242,0.337v-0.337l-0.338,0.627l-0.194-0.29l0.097,0.964l0.097,0.24h-0.484v0.29h0.29l0.339,0.626l0.29,0.385v0.289
				l-0.58,0.338l-0.193,0.578l0.483,0.288v0.386l-0.483,0.289l0.193,0.29l-0.483,0.289l0.242,0.337h-0.339v0.24l0.242,0.481
				l-0.483,0.146l0.097,0.481l0.484,0.673"/>
		</g>
		<g>
			<path fill="none" stroke="#FFFFFF" stroke-width="1.0201" d="M54.586,219.368"/>
			<path fill="none" stroke="#FFFFFF" stroke-width="1.0201" d="M54.974,220.429l0.387,0.145l-0.097,4.336l-0.967,4.191
				l-2.031,1.831l1.112,3.95v1.205l1.208,0.48l0.339,2.891l-0.484,2.89l-1.306,1.735 M54.103,220.958l0.871-0.481 M53.716,220.958
				H54.2 M53.136,244.083l-0.822-0.193 M52.313,243.89l1.257,1.543"/>
			<path fill="none" stroke="#FFFFFF" stroke-width="1.0201" d="M55.795,219.85l2.515-2.071l-0.387-0.481 M54.538,219.368
				l1.258,0.481"/>
		</g>
		<g>
			<path fill="none" stroke="#647882" stroke-width="1.0201" stroke-dasharray="3.0602,3.0602" d="M54.586,219.368"/>
			<path fill="none" stroke="#647882" stroke-width="1.0201" stroke-dasharray="3.0602,3.0602" d="M54.974,220.429l0.387,0.145
				l-0.097,4.336l-0.967,4.191l-2.031,1.831l1.112,3.95v1.205l1.208,0.48l0.339,2.891l-0.484,2.89l-1.306,1.735 M54.103,220.958
				l0.871-0.481 M53.716,220.958H54.2 M53.136,244.083l-0.822-0.193 M52.313,243.89l1.257,1.543"/>
			<path fill="none" stroke="#647882" stroke-width="1.0201" stroke-dasharray="3.0602,3.0602" d="M55.795,219.85l2.515-2.071
				l-0.387-0.481 M54.538,219.368l1.258,0.481"/>
		</g>
		<g>
			
				<text transform="matrix(1.0038 0 0 1 125.8989 146.2051)" fill="#333333" font-family="'DE5DisplayEgyptianSemiBold'" font-size="18.326">Syria</text>
			
				<text transform="matrix(1.0038 0 0 1 249.3467 233.9238)" fill="#333333" font-family="'DE5DisplayEgyptianSemiBold'" font-size="18.326">Iraq</text>
			
				<text transform="matrix(1.0038 0 0 1 32.3506 25.2905)" fill="#333333" font-family="'DE5DisplayEgyptianSemiBold'" font-size="18.326">Turkey</text>
		</g>
	</g>
</g>
<g transform="translate(0, 614)">
	<text transform="matrix(1 0 0 1 3.3115 -334.8301)" font-family="'ArialMT'" font-size="9.6782">100 km</text>
	<text transform="matrix(1 0 0 1 3.3115 -316.3662)" font-family="'ArialMT'" font-size="9.6782">100 miles</text>
	<path d="M3.312-328.464h52.05"/>
	<path d="M54.89-328.464v3.786 M35.489-328.464v-3.785"/>
</g>
<g transform="translate(424, 596)">
	<g display="none">
		<circle display="inline" fill="#FFFFFF" cx="-177.471" cy="-271.395" r="45.426"/>
		<circle display="inline" fill="#929297" cx="-177.471" cy="-271.394" r="42.35"/>
		<path display="inline" fill="#EBEBEB" d="M-139.379-279.154v0.142l-0.236-0.331v0.189l0.236,0.331l-0.094,0.662l-0.096,0.189
			v0.521l-0.142,0.568v0.142h0.189v0.474l-0.237-0.379l-0.141-0.379l-0.096,0.284v-0.095h-0.283v0.473l-0.095,0.379v0.284
			l-0.142,0.142v0.095l0.142,0.474l-0.095,0.283l0.143,0.805l0.283,0.236h0.095l0.188,0.332l0.568,0.283l0.095-0.094l0.284,0.283
			l0.189,0.332l0.236,0.378v0.331l0.189,0.189l-0.095,0.236l0.142,0.568v0.331l-0.095,0.614l-0.142,0.663h-0.189l0.095,0.378v0.475
			l-0.237,0.662v0.473l-0.141,0.143l-0.096-0.852v-0.143l-0.142,0.095l-0.095-0.142h-0.095l-0.188,0.283v-0.473l-0.237,0.331
			l-0.142-0.378l-0.095-0.237l-0.189,0.095l-0.236-0.143l-0.095,0.189l-0.143,0.143l-0.094-0.474l-0.284,0.379l0.095,0.804V-266
			l0.094,0.473l0.237-0.236v0.379l0.189,0.095l0.142,0.474h-0.094l0.33,0.188l0.189-0.284l0.189,0.189l0.473,0.143l0.096,0.283
			v1.184l0.189,0.094l0.188,0.474l-0.284,0.331h-0.662l-0.095-0.331l-0.188-0.142l-0.285-1.184l-0.094-0.189h-0.189v-0.236
			l-0.473-0.473l-0.096,0.331l-0.142-0.189v-1.419v0.378l-0.095-0.474v-0.52l-0.189-0.236v-0.332l-0.615-1.088l-0.33-1.041
			l-0.096,0.142l-0.331-0.474l0.095,0.711l-0.236,0.473l-0.095,0.473l-0.378,0.189v-0.236l-0.143,0.283l-0.095-0.378v-0.757
			l-0.474-0.71l-0.33-0.095l0.141-0.236l-0.378-0.236v0.236l-0.331-0.284v0.142l-0.332-0.378l-0.188-0.189l-0.237-0.474
			l-0.283-0.236l-0.095,0.332l-0.331-0.189l0.283,0.473v0.473l-0.142-0.141l-0.331,0.473l-0.143-0.236l0.096,0.283l-0.189,0.284
			h-0.189l-0.095-0.284l-0.095,0.474l-0.189,0.236l-0.094,0.378l0.141,0.285l-0.236,0.662l-0.331,0.473l-0.188,0.474l-0.237,0.804
			l-0.236,0.332l-0.095,0.473l-0.473,0.568l0.142,0.283l-0.237,0.284l-0.236,0.189v0.378l-0.473,0.285v0.473l0.142,0.331
			l0.142,0.567l0.143,0.143v0.615l-0.143,0.379l0.189,1.183h-0.283l-0.143,0.567v0.236l-0.379,0.474v0.379l-0.378,0.331h-0.331
			l-0.284-0.236l-0.284-0.662l-0.473-0.947l-0.284-0.142l-0.284-0.474l-0.236-0.615l-0.283-0.473l-0.237-0.189l-0.378-0.568
			l-0.189-0.473l-0.332-0.757l-0.473-1.136v-0.473l-0.332-0.805v-0.284l-0.283,0.236l0.189,0.142v0.379l-0.615,0.568l-0.568-0.096
			l-0.852-0.614l0.71-0.474V-266l-0.284,0.236h-0.379l-0.378-0.094l-0.378-0.332l-0.332,0.143l-0.473-0.474h-0.284v-0.378
			l-0.237-0.189l-0.473,0.378l-0.709,0.237l-0.568,0.094v0.143l-0.662,0.094l-0.474,0.285l-0.095-0.096l-0.095,0.143h-0.474
			l-0.142-0.189l-0.378,0.189h-0.805l-0.379,0.094l-0.567-0.141l-0.331-0.711l-0.474-0.189l-0.378,0.237l-0.474,0.474l-0.379-0.143
			h-0.378l-0.236-0.094l-0.568-0.237l-0.143-0.142l-0.709-0.189l-0.236-0.473l-0.285-0.285v-0.236l-0.473-0.473l-0.331,0.142
			l-0.378-0.236v0.236l-0.285,0.095h-0.378l0.474,1.041l0.283,0.662h0.236l0.096,0.284l0.378,0.189l0.189,0.331v0.473l0.236,0.189
			l0.284,0.474l-0.095-0.474l0.331-0.567l0.236,0.142v0.71l-0.189,0.237l0.285,0.236l0.188,0.189l0.474-0.189h0.662l0.568-0.379
			l0.945-1.42l0.096-0.236v0.568l0.142,0.473l0.142,0.332l0.379,0.283l1.136,0.095l0.804,0.804l-0.189,0.615l-0.33,0.474
			l-0.189,0.379l-0.236-0.095l-0.143,0.662l0.143,0.474l-0.615,0.284l-0.284,0.662l-0.567,0.189l-0.237,0.662l-0.663,0.095
			l-0.709,0.331l-0.473,0.379v0.473l-0.615,0.332l-0.568,0.189l-1.041,0.473l-0.236,0.379h-0.474l-0.474,0.33l-0.473,0.189
			l-0.757,0.096l-0.474,0.473h-0.283l-0.474,0.143l-0.284-0.237l-0.142-0.237v-0.33l-0.378-1.42v-0.473l-0.332-0.711l-0.473-0.33
			l-0.332-0.474l-0.189-0.567l-0.283-0.332l-0.615-0.331l-0.379-0.567l-0.094-0.474l0.094-0.378l-0.473-0.947l-0.615-0.331
			l-0.236-0.474v-0.188l-0.379-0.474l-0.284-0.567l-0.474-0.615l-0.141-0.474h-0.379l0.236-0.945v-0.143l-0.379,0.946v0.189
			l-0.236,0.142l-0.473-0.662l-0.096-0.284l-0.283-0.378l-0.095-0.379l-0.189,0.283l0.142,0.143l0.189,0.615l0.474,0.473v0.236
			l0.236,0.663v0.142l0.805,1.656l0.142,0.332v0.33l0.143,0.379l0.331,0.236l0.474,0.474l0.188,1.041v0.71l0.095,0.473l0.852,0.663
			l0.236,0.474l0.189,0.945l0.332,0.568l0.094-0.189l0.236,0.473l0.615,0.096l0.474,0.473l0.379,0.236l0.331,0.474l0.283,0.142
			l0.189,0.379l-0.473,0.379h0.331l0.474,0.473l0.331,0.236h0.474l0.615-0.379l0.473,0.096l0.662-0.474h0.568l0.567-0.095
			l0.946-0.331l0.379-0.331l0.331,0.094l-0.095,0.474l0.095,0.379l-0.142,0.188l-0.096,0.568l-0.378,0.71l-0.331,0.331l-0.615,1.42
			l-0.71,0.946l-1.419,1.419l-1.041,0.663l-0.805,0.662l-1.041,0.946l-0.379,0.474l-0.473,0.236v0.142l-0.568,0.284v0.284
			l-0.567,0.757h0.047l-0.095,0.284l-0.283,0.473l0.094,0.236l0.474,0.285v0.094l-0.189,0.236l0.142,0.237l-0.142,0.142l0.189,0.332
			l0.142,0.567l0.474,0.284l0.189,0.189l-0.095,0.378v0.474l0.142,0.094v0.474l0.189,0.378l-0.189,0.474l-0.662,0.474l-0.379,0.189
			l-0.946,0.236l-0.379,0.189l-0.567,0.379l-0.567,0.236l-0.474,0.33l-0.189,0.237h0.237l0.189,0.474l0.094,0.283l0.095-0.094v0.898
			l-0.188,0.189l-0.947,0.142l-0.473,0.142l-0.284,0.143l0.236,0.142v0.189l-0.284,0.567l-0.378,0.096l-0.331,0.188l-0.474,0.379
			l-1.089,0.378l-0.804,0.189h-1.278l-0.756-0.142h-0.143l-0.473-0.095h-0.474l-0.474-0.095l-0.473,0.095l-0.473-0.189l-0.285-0.094
			l-0.756-0.568h0.188l-0.188-0.284l-0.711-0.474l-0.473-0.567l-0.236-0.188l-0.568-0.332l-0.331-0.283l-0.474-0.711l-0.142-0.378
			l-0.331-0.378v-0.474l-0.236-0.284l-0.332-0.283l-0.473-0.474l-0.143-0.379l-0.709-0.804l-0.332-0.332l-0.141-0.473l-0.143-0.662
			l0.189-0.379v-0.615l0.709-0.379v-0.567l-0.094-0.237l-0.474-0.615l-0.095-0.33l0.236-0.143v-0.236l-0.378-0.662v-0.237
			l-0.474-0.474h0.615h-0.473l-0.143-0.283l-0.189-0.473l-0.094-0.237l-0.474-0.474l-0.378-0.473l-0.474-0.568l-0.474-0.615
			l0.096-0.283l-0.189-0.095l-0.237-0.474l0.237,0.143l0.189-0.189v-0.615l0.188,0.095l0.095-0.189l-0.283-0.236l0.283-0.331v-0.284
			l0.143-0.474l-0.237-0.33v-0.237l-0.474-0.237v-0.283l-0.236-0.095v-0.142l-0.189-0.189v0.283l-0.567-0.236h-0.189l-0.474-0.094
			l-0.473-0.379l-0.095-0.473l-0.236-0.568l-0.284-0.332l-0.331-0.141l-0.71-0.237l-0.615-0.189h-0.283l-0.143,0.095l-0.379-0.142
			h-1.371l-0.568-0.474h0.143l-0.615-0.379l-0.947-0.473h-0.946l-0.378-0.473l-0.474-0.615l-0.474-0.947l-0.473-0.709v-0.189
			l-0.473-0.615l-0.143-0.473l-0.143-0.474v-0.946l-0.378-0.568v-0.379l-0.189-0.283l-0.142-0.331v-0.474h-0.143l-0.236-0.709
			l0.095-0.474l0.095-0.284l-0.095-0.946l-0.142-0.142h0.189l0.473-0.474l0.143-0.474l0.236-0.283l0.189-0.473l0.094-0.663v-0.378
			l0.189-0.189l0.095-0.236l-0.095-0.475v-0.378l-0.142,0.189l0.142-0.474l0.332-0.473h0.094l0.663-0.71l0.567-0.284l0.284-0.473
			l0.331-0.474h0.473l0.568-0.662l0.473,0.188h0.237l0.567-0.188l0.568-0.379l0.236-0.284v-0.283l0.236-0.474l0.379-0.284
			l0.189-0.33l0.473-0.285h0.521l0.473-0.094l0.473-0.474l0.379-0.474h0.284v0.332l0.188,0.473l0.711,0.236l0.236,0.332h0.236
			l0.379-0.095h0.805l0.567-0.189l0.71,0.284l0.236-0.095l0.946,0.284l0.142,0.283h0.474l0.474,0.095h0.236l0.189,0.237l0.378,0.094
			l0.379-0.094h0.378l0.143,0.567l0.379-0.189v0.189l-0.474,0.284v0.331l0.142,0.236v0.284l-0.379,0.473h-0.33v0.474l0.33,0.189
			v0.331l0.237,0.095l0.378,0.331l0.568,0.095l0.568,0.474l0.378,0.142v0.567l0.331,0.332l0.758,0.33l0.473,0.285l0.473,0.473h0.143
			l0.473-0.284l0.143-0.284v-0.378l0.094-0.331l0.332-0.236l0.709,0.142l0.285,0.095l0.473,0.331v0.188l0.615,0.332l0.473,0.142
			l0.096,0.237l1.324,0.378l0.332,0.237l0.662,0.33l0.757-0.33h1.136l0.094,0.283l0.663,0.095l0.71-0.189l0.236-0.188l0.473-1.089
			l0.474-1.136v-1.277l0.189-0.189l-0.142-0.236l-0.379,0.283l-0.473-0.189l-0.615,0.379h-0.474l-0.474-0.331l-0.757-0.284
			l-0.188,0.474h-0.474l-0.474-0.379l-0.379-0.284h-0.473l0.236-0.283l-0.236-0.095l0.095-0.379l-0.567-0.331l0.473-0.095
			l-0.142-0.188l0.188-0.096l-0.236-0.283l0.189-0.236h-0.473v-0.285l0.473-0.283h0.284l0.946,0.189l0.189-0.284v-0.331l1.088,0.189
			l0.615-0.474l0.568-0.188l0.757,0.094l0.142-0.094l0.189,0.283h0.473l0.189,0.331l0.096-0.142l0.567,0.283l0.474,0.096
			l0.567-0.143l0.378,0.143l0.758-0.474l0.142-0.284l-0.189-0.615l-0.331-0.283l-0.473-0.189l-0.568-0.568l-0.473-0.189
			l-0.096-0.189l-0.662-0.378l0.568-0.095v-0.331l0.142-0.189l0.284-0.095l-0.474-0.473l0.805-0.189v-0.189l-0.474,0.143
			l-1.23,0.236l-0.473,0.379l0.236,0.614l0.615-0.095l-0.094,0.284h-0.474l-0.567,0.237l-0.285,0.236l-0.188-0.189v-0.379
			l-0.331-0.189v-0.142l0.473-0.189l-0.236-0.236l-0.473,0.142l-0.285-0.236h0.285l-0.237-0.189h-0.474l-0.236,0.332l-0.473,0.378
			v0.284l-0.095,0.236h-0.284l-0.236,0.283l-0.143,0.474l-0.283,0.189l-0.332,0.663l0.189,0.378v0.237l0.474,0.33v0.189
			l-0.853-0.094l-0.283,0.236l-0.615,0.473l0.143-0.236l0.33-0.189l-0.473-0.095l-0.473-0.236l-0.758,0.095l0.332,0.473
			l-0.285-0.236l-0.236,0.095l-0.283-0.284l-0.189,0.332l0.283,0.709l-0.378,0.236l0.615,0.474v0.474l-0.189-0.332l-0.331,0.096
			l0.189,0.33l-0.474-0.142l0.142,0.853l-0.283-0.332v0.236l-0.189-0.473l-0.189,0.236l-0.094-0.283l0.094-0.237l-0.283-0.378
			l0.189-0.236l0.378-0.096l0.474,0.332h0.189l-0.663-0.379h-0.474l-0.094-0.473l-0.332-0.663l-0.236-0.474l0.283-1.183
			l-0.473-0.567l-0.283-0.474l-0.284-0.474l-0.474-0.236l-0.236-0.473v-0.615l-0.143-0.284l-0.283,0.331v-0.709l-0.758,0.189
			l-0.142,0.709l0.474,0.662v0.663l0.379,0.615l0.473,0.095l-0.095,0.331l0.946,0.804l0.143,0.474l-0.096,0.189l-0.188-0.474
			l-0.379-0.189l-0.284,0.237l-0.142,0.236l0.284,0.284l-0.143,0.379l-0.331,0.094v0.189l-0.378,0.284l-0.236-0.095l0.236-0.473
			h0.189v-0.947l-0.379-0.283v-0.332l-0.332-0.189l-0.094-0.283l-0.332-0.095l-0.662-1.136l-0.189-0.473v-0.758l-0.473-0.473
			l-0.379,0.189h-0.379l-0.567,0.331h-0.378l-0.189-0.474h-0.189l-0.332-0.094l-0.567,0.141l-0.142,0.475l-0.143,0.378l-0.709,0.236
			h-0.474l-1.089,0.757l-0.094,0.236l0.094,0.332l-0.473,0.142l-0.331,0.331h-0.474l-0.379,0.379l-1.041-0.473h-0.473l-0.142,0.142
			h-0.142l-0.143-0.284v-0.473l-0.283-0.474h-0.096l-0.33-0.189h-0.143l0.189-0.284l0.283-0.615l-0.142-0.378l0.237-0.331
			l0.473-0.473l0.473-0.475l0.143-0.614l0.142-0.095l0.142-0.189l0.189-0.662h0.71l0.095,0.189l0.473,0.283l0.568,0.474l0.379,0.095
			l0.142,0.189l0.474,0.236h0.236l0.946-1.514l0.095-0.237l-0.189-0.284l0.143-0.473l-0.096-0.379l-0.283-0.473l-0.095-0.568
			l0.757,0.095v0.331l0.568,0.143l0.189-0.805l0.142,0.283l0.331,0.237h0.283v-0.142h0.474l0.237-0.096l0.236-0.473h0.852
			l0.331,0.143v-0.474l0.474-0.237l0.236-0.378l0.473-0.095h0.474v0.284l0.189-0.237l0.474,0.237l0.283-0.142v-0.379l0.189-0.095
			v-0.284l0.143-0.379l-0.189-0.142l0.283-0.095l0.095-0.473h0.237l0.378-0.143l0.474-0.331h0.189l-0.332,0.474l-0.094,0.236
			l0.188,0.143l-0.852,0.473v0.331l-0.237,0.095l0.474,0.615v0.236l0.615-0.283l0.474,0.709v-0.142l0.945-0.095l0.189-0.143h0.663
			v0.237l0.474,0.095l0.236-0.332l0.473-0.142l-0.236,0.189h0.236l0.095-0.142v-0.615l0.237-0.474l0.33-0.474h0.332l0.142,0.474
			l0.189,0.095l0.284-0.142l0.094-0.474l0.143-0.331h-0.189v-0.663l0.946-0.188l0.331,0.142h0.474v-0.189l0.474-0.094l0.33,0.094
			l-0.094-0.189h-0.332v-0.378h-0.709l-0.474,0.189h-0.804l-0.615-0.237l0.189-0.709v-0.236l0.142-0.474l0.474-0.284l0.141-0.236
			l0.285-0.095l0.567-0.567h0.142l0.189-0.332l-0.283-0.283l-0.474-0.096l-0.615,0.568v0.236l-0.284,0.332l-0.615,0.189
			l-0.805,0.567l-0.473,0.804v0.285l0.379,0.378v0.284l-0.474,0.142l0.142,0.142l-0.615,0.236l-0.378,0.474l-0.189,0.474
			l-0.474,0.662l-0.473-0.189l-0.236,0.379h-0.474v-0.662l0.237-0.189l-0.096-0.236v-0.615l0.189-0.332l-0.189-0.094l0.237-0.332
			l-0.237-0.283l-0.33,0.094l-0.663,0.284h-0.378l-0.332-0.142l-0.094-0.473l0.473-0.285l-0.332-0.283l0.474-0.143l-0.188-0.236
			l0.094-0.379l0.236-0.094v-0.284l0.379-0.237l0.758-0.283l1.088-0.284v0.237l0.521-0.237h-0.615v-0.188l0.284-0.189h0.473
			l0.143-0.332h0.379l0.094-0.378l0.71-0.663l0.663-0.331l0.141-0.188l0.568-0.096l-0.189-0.094l0.379-0.189l0.283-0.332
			l0.568-0.188v0.142l0.473-0.283l0.285,0.142l0.473-0.284h0.331l-0.331,0.473l0.473-0.473v0.284l0.284-0.379l0.474,0.284
			l0.283,0.331L-179.6-296l-0.331-0.143l0.474,0.285l0.331-0.096l0.236,0.236h-0.236l0.331,0.237l0.615,0.095l0.662,0.473
			l0.662,0.474l0.143,0.474l-0.284,0.33l-0.236,0.143h-0.474l-0.709-0.236l-0.568-0.189l-0.331-0.284l0.236,0.379l0.474,0.284v0.283
			l-0.143,0.189l0.143,0.332v0.141l0.283,0.189l0.189,0.189l0.332,0.189l0.283-0.142l-0.094-0.189h-0.332l-0.236-0.331l0.189-0.236
			l0.757,0.473h0.331l-0.283-0.615v-0.095l0.473-0.331l0.236-0.283h0.332l0.283,0.378v-0.474l-0.189-0.331v-0.71l-0.236-0.189h0.71
			l0.284,0.379l-0.379,0.095l-0.095,0.284l0.284,0.236l0.567-0.095v-0.378l0.189-0.096l1.089-0.852h0.142l0.095,0.284l-0.189,0.095
			h0.473l0.189-0.331h0.332l0.33-0.331l0.189,0.331l0.332-0.474l-0.379-0.236l0.095-0.189h0.852l0.757,0.189l0.662,0.236v-0.473
			h-0.141l-0.237-0.236h-0.284l-0.426-0.758l-0.236-0.189l0.143-0.473l-0.237-0.473l0.474-0.237h0.236l0.189,0.284l0.094,0.473
			l0.332,0.143l0.283,0.473l0.474,0.662l0.474,0.143v0.189l0.142,0.331v0.71l-0.142,0.142l-0.284-0.095l-0.142,0.189h0.945v-0.379
			l0.143-0.142l-0.095-0.614l-0.474-0.475l0.379-0.378l0.379,0.142l0.283,0.474v-0.474l-0.378-0.236h-0.615l-0.284,0.189
			l-0.236-0.331l-0.236-0.474l-0.615-0.379v-0.141l0.094-0.285l-0.33-0.33l0.473,0.236v0.142l0.473,0.331l0.379-0.189h-0.473
			l-0.236-0.142l0.378-0.189l-0.236-0.188l0.236-0.096l0.71,0.143l0.143-0.189l0.141,0.331l0.237,0.237l0.095-0.143l0.189,0.236
			l0.142-0.094l-0.474-0.332l-0.094-0.189l-0.947-0.189l-0.378-0.33v-0.189l0.331-0.284l0.283-0.474H-169l-0.189-0.378l-0.094-0.474
			l0.283-0.473h-0.189l0.236-0.284h0.284v-0.284l-0.188-0.142l0.141-0.142l-0.236-0.143l-0.283-0.473l0.331-0.096l0.142,0.237
			l0.474-0.189l0.236-0.331h0.474l0.378,0.095l0.379,0.236l0.284,0.474l0.331,0.473l0.188,0.284l0.143-0.189l-0.095-0.474
			l-0.095,0.096l-0.142-0.143l0.331-0.189v-0.047l0.236,0.095v-0.284l0.236-0.379l0.189,0.143l0.284-0.284v-0.284l-0.474-0.189
			l-0.094-0.142l0.331-0.095l-0.095-0.094l0.379-0.237l0.236,0.331l0.283-0.142l0.143,0.095l-0.236,0.094h0.757l0.378-0.141
			l-0.804-0.379l0.236-0.095v-0.095l-0.189-0.236l0.284-0.236h-0.236v-0.285h-0.662l-0.285-0.33l-0.094-0.474l0.094-0.142
			l0.143,0.142h0.236l-0.473-0.142v-0.189l0.094-0.189h0.189l0.096-0.189h0.188l-0.142-0.236l-0.379-0.236l-0.236-0.284v-0.237
			h0.426v-0.142h0.283l-0.473-0.188l-0.283-0.189v-0.096l-0.332-0.283h-0.283l0.283-0.143v-0.236l-0.379-0.189l-0.473,0.096
			l-0.473-0.379l-0.284-0.143l-0.379-0.283l-0.284-0.284l-0.142-0.331l-0.188-0.095l0.283-0.189h-0.283l-0.568-0.142l-0.189-0.284
			l0.331,0.095l0.474,0.142h0.331l-0.142-0.095l0.378,0.143l0.142,0.142h0.237l-0.142,0.095l0.188,0.143l0.474,0.141l-0.143,0.096
			h0.521l0.378,0.094l0.378,0.143l0.379,0.283l-0.283-0.142h0.189l-0.189-0.142h0.331l-0.142-0.143h0.142l0.331,0.096l0.331,0.188
			l1.183,0.474l0.947,0.331l0.378,0.188l0.379,0.096v-0.143l0.236,0.189l0.474,0.189l0.473,0.189h-0.379l0.663,0.236h-0.142
			l0.236,0.143l0.379,0.141h0.189l0.473,0.189l0.331,0.143l-0.095-0.189l0.284,0.095l0.378,0.095l-0.094-0.095h0.283l0.284,0.284
			l0.378,0.189h0.285l0.283,0.189l0.189,0.188l0.331,0.189l0.474,0.284l0.473,0.283l0.284,0.096l0.615,0.378l0.474,0.378
			l-0.568-0.236l-0.332-0.094l-1.088-0.379l-0.946-0.379l-0.474-0.283h-0.188l-0.142-0.143l-0.615-0.473l-0.568-0.189l-0.946-0.474
			l-0.189-0.095l-0.567-0.331h-0.284l-0.474-0.142l-0.33-0.189v0.095l0.33,0.236l0.568,0.095v0.095l0.283,0.095l0.805,0.473
			l-0.331-0.189l0.189,0.143l-0.663-0.189l0.285,0.236h-0.096l0.474,0.332l0.237,0.142h0.141l0.758,0.474l0.568,0.283l-0.143-0.095
			h0.095l0.284,0.237v0.094l0.283,0.143v0.094l0.236,0.237h-0.141l-0.237-0.237l-0.095,0.096l0.189,0.189v0.142l0.236,0.142h0.095
			v0.236l0.142,0.096v0.236l0.332,0.473l0.331,0.473l0.331,0.189l0.189,0.189l0.473,0.189l0.615,0.662l0.615,0.474l0.852,0.946
			h0.189l-0.094-0.331l0.473,0.284l-0.236-0.143l0.142-0.094l0.284,0.236l-0.143-0.189l-0.473-0.473l-0.095-0.189h0.474l0.473,0.236
			h0.283l0.285,0.283l0.662,0.474l0.236,0.095l0.946,0.662l0.474,0.474l0.473,0.474l0.473,0.378l1.089,1.419l0.474,0.474l0.473,0.71
			v0.662l-0.236-0.189l0.095,0.189l0.474,0.71l0.142,0.237l0.236,0.378l0.378,0.331l0.096,0.189l0.236,0.473l0.236,0.474
			l0.284,0.379l0.236-0.095l0.615,0.379l0.474,0.473l0.473,0.568v0.473l0.189,0.568l0.143,0.33l-0.285-0.283l-0.283-0.473l0,0
			h-0.189l-0.189-0.237h-0.094l-0.189-0.378l-0.237-0.284v0.095l-0.095,0.189l0.095,0.142v0.095l-0.284-0.189l-0.473-0.662
			l-0.284,0.094v-0.142v0.474l0.142,0.473l0.237,0.474v0.331l-0.189-0.473h-0.095l-0.142-0.379l-0.237-0.474h-0.142l-0.142,0.237
			l0.283,0.567l0.096,0.474l0.283,0.473v0.284l-0.095,0.142l0.189,0.284l0.284,0.095v-0.284l0.473,0.474l0.095-0.096l-0.188-0.804
			l0.236-0.095v-0.331l0.283,0.474h-0.094l0.142,0.709l0.142,0.189l0.143,0.615l0.189,0.473l0.236,0.096l0.142-0.096l0.615,0.474
			l0.142,0.237h0.379l0.095,0.188l-0.095,0.237h0.283l0.143,0.094v0.568l0.143,0.236v-0.331h0.283l0.189,0.474l0.189,0.473h0.094
			v0.189l0.379,1.183v0.331l0.143,0.143l0.236,0.567v0.331l0.095,0.189l0.095,0.379v0.615l0.094,0.473v0.332l0.096,0.567v0.474
			l-0.189,0.236v0.378L-139.379-279.154z M-168.527-273.949l-0.236-0.947v-0.188l-0.236-0.284l-0.095-0.473h-0.474v-0.663
			l0.474,0.189l0.331-0.142l0.143-0.332l-0.379-0.189l-0.189-0.473l-0.379,0.095l-0.094,0.567l-0.284-0.236v-0.709h-0.378
			l-0.379-0.474l-0.332-0.474l-0.378-0.094v-0.189h0.474l-0.189-0.237l0.189-0.378l0.567-0.143l0.188-0.473v-0.474l-0.473-0.188
			v0.188l-0.615-0.188l-0.331,0.236l-0.567,0.473l-0.474,0.473h-0.284l-0.142,0.615l-0.237,0.379l0.332,0.143l0.142,0.236v0.615
			l0.757,0.805l0.852,0.945l-0.236,0.285l-0.094,0.852l-0.143-0.143v0.568l0.236,0.615l0.615,0.094l0.236,0.236l0.379,0.189
			l0.473,0.096l0.947-0.379h0.236L-168.527-273.949z M-182.202-313.697h-0.095h0.568l0.331-0.095h1.798h-0.189h0.426h-0.189
			l0.189-0.188h1.42h-0.095h1.515l0.709,0.142h0.853h-0.095h1.372l0.331,0.095h-0.331h0.237h-1.089h0.284l0.33,0.094l0.332-0.094
			h0.852h-0.283h0.852l0.473,0.094h0.236l0.947,0.143h0.094l0.474,0.095l0.663,0.095h0.094l0.332,0.094h0.378h-0.378l-0.379-0.094
			l-0.474-0.095h-0.142l-0.662-0.095l-0.711-0.095h-0.378h0.474l0.236,0.095h0.236l0.236,0.095l0.474,0.095h0.095h-0.143
			l0.096,0.094l0.614,0.143l0.237,0.143h-0.189l0.189,0.094h-1.089l-0.189-0.142l-0.946-0.095v0.095h-0.236l0.757,0.142h0.095
			l0.473,0.095l0.285,0.142v0.096h-0.189l0.473,0.142h-0.331l-0.853-0.189h-0.283l0.095-0.095l-0.379-0.095h-0.662h0.331v0.095
			l0.473,0.095v0.095l0.379,0.283h-2.839l-0.474,0.096l-0.236-0.143h-0.473v-0.094h-0.615l-0.474-0.143l-0.71-0.095h-0.898
			l-0.474-0.095h-0.284l-0.757-0.095l0.142,0.095l-0.378,0.095h-0.331l-0.474,0.095l-0.095,0.095h-0.283l0.662-0.189l0.236-0.142
			l-0.473,0.189h-0.143l-0.094,0.094l-0.711,0.189l-0.473-0.094l-0.189,0.188l-0.094-0.142l-0.285,0.094l-0.378,0.143h-1.041
			l-0.567,0.143l-0.189,0.094h-0.474l0.284-0.094h-0.473l-0.332,0.141l-0.473,0.189l-0.332,0.096h-0.898l0.709,0.142l-0.283,0.095
			v0.094l0.331-0.283h0.189l-0.284,0.236h-0.757l-0.189,0.143l-0.474,0.094l-0.236,0.189l-0.567,0.189l-0.284,0.095l0.615-0.095
			l-0.236,0.143l-0.332,0.142l-0.283-0.095l-0.379,0.142h0.284v0.284l0.331-0.095h0.284l0.474-0.095h0.283l0.473,0.095v0.331h-0.615
			l-0.33,0.095h-0.332v-0.095h-0.283l-0.568,0.189h-0.379l0.332,0.095v0.095l-0.379,0.095h-0.568l-0.473,0.095v0.094l0.568,0.143
			v0.143l0.236-0.143h0.331l-0.095,0.143l-0.379,0.236l-0.473,0.142h-0.284v-0.142l-0.331,0.094l-0.473,0.143h-0.189l-0.095-0.284
			l0.474-0.142l-0.474,0.142l0.284-0.236h0.142l0.188-0.189l-0.33,0.142l-0.189-0.189l0.094-0.094l0.663-0.189l-0.474,0.095
			l-0.473,0.284l-0.332-0.096v-0.188l0.474-0.189h-0.284v-0.142l0.947-0.474l-0.947,0.474h-0.283l0.283-0.189h-0.236l0.143-0.095
			h-0.236v-0.142h-0.947l-0.473,0.283l-0.852,0.284h-0.096l-0.236,0.236l-0.709,0.474l-0.474,0.236l-0.284,0.143l-1.088,0.662
			l-0.568,0.473l-0.473,0.189l-0.236,0.143h-0.379l-0.758,0.473l-0.33,0.236l-0.189,0.095l-0.332,0.237h0.189l-0.331,0.142
			l0.331-0.142h0.284l1.419-0.758l-0.094,0.332l0.283,0.094l0.663-0.236l0.474-0.189l0.662-0.473l0.189,0.094h0.33l0.663-0.283
			h0.189l0.567-0.189l0.095,0.095l-0.662,0.567v0.143l-0.757,0.473l-0.284,0.143l-0.284,0.379h-0.236l-0.236,0.141l-0.805,0.237
			l-0.189,0.236l-0.473,0.331l0.236,0.189h0.805l-0.284,0.189h-0.142l-0.474,0.473l-0.378,0.189h-0.237l-0.237,0.284l-0.378,0.142
			l-0.142,0.189l-0.474,0.095l-0.142,0.237h-0.143l-0.189,0.33l-0.236,0.143h-0.142l0.189,0.143l-0.189,0.236l-0.189,0.094
			l-0.236,0.474l-0.189-0.142l-0.095-0.284l-0.142,0.142l0.095,0.189h0.142l0.095,0.236l-0.331,0.189l-0.284,0.474l-0.283,0.095
			l-0.237,0.236l-0.188,0.143l-0.379-0.096v-0.283l-0.474-0.095v-0.379l0.142-0.236l0.474-1.089h-0.378l0.094-0.142l-0.142-0.095
			h-0.805l0.095-0.142v-0.189h-0.283v-0.095v0.189l0.188-0.095v0.378h0.474v0.096l0.094,0.283v0.236l-0.283,0.332l-0.236,0.236
			h-0.048l-0.095-0.143l0.189-0.188v-0.142l-0.331,0.473v0.095l-0.189,0.095h-0.236l-0.142,0.236l-0.379,0.284l-0.189,0.188
			l-0.379,0.615h0.096l-0.379,0.474l-0.189-0.378l0.142-0.237l-0.284,0.095l-0.142-0.142l0.379-0.379l0.236-0.142l0.142,0.189
			h-0.142l0.095,0.189l0.189-0.474l0.094,0.095l-0.094-0.236v-0.096l0.189-0.142l-0.284,0.189l0.142-0.378h-0.189l0.096-0.096
			h-0.237l-0.236,0.189h-0.095l-0.332,0.379l-0.141,0.236l0.141-0.379l0.189-0.473l0,0l-0.142,0.143l-0.236,0.236h-0.189
			l0.378-0.332l-0.567,0.474l-0.188,0.189l0.142-0.142l0.378-0.474l0.474-0.284l-0.189,0.095l-0.474,0.474l-0.378,0.283
			l-0.095,0.143l-0.379,0.379l-0.236,0.188l0.189-0.188l-0.331,0.33l0.142-0.188l0.143-0.142l1.514-1.609l1.609-1.562l1.703-1.419
			l1.798-1.42l1.894-1.184l1.893-1.135l1.893-1.089l2.034-0.946l2.034-0.805l2.082-0.757l2.178-0.615l2.224-0.615L-182.202-313.697z
			 M-219.726-276.789v0.663l-0.095,0.284v-0.143v0.568l-0.095,0.945v0.474v-0.142v0.615l-0.142,1.088v1.184v-2.225l0.283-2.176
			L-219.726-276.789z M-220.01-269.691v0.568V-269.691z M-220.057-269.028v-0.474l0.095-0.189l0.095,0.947v0.945h0.094v1.041h0.189
			l0.096,0.096l0.141,0.757v0.095l0.096,0.331l0.094,0.284l0.096,0.236v0.473l0.236,0.805l0.283,1.136l0.143,0.331l0.236,0.474
			v0.284l0.283,1.183l0.096,0.474v0.804h-0.096v0.567v-0.283v0.331l0.143,0.474l0.095,0.283l0.237,0.758l0.188,0.473l-0.804-2.129
			l-0.615-1.988l-0.474-2.176l-0.474-2.225l-0.236-2.082L-220.057-269.028z M-146.24-270.779l-0.142,0.143l-0.142-0.474
			L-146.24-270.779z M-220.057-270.543v-0.378v1.419v-0.283V-270.543z M-220.057-270.779v-0.331V-270.779z M-137.249-264.77
			l0.095,0.142l0.283-0.331v-0.898l0.332-0.947l0.142-1.041v-0.236l0.142-0.568h0.095v-0.473l0.095-0.283v-1.326v0.285v-0.474
			l0.143,0.236l0.094,0.237v-0.189v0.189v-0.189h0.189v0.473l-0.094,0.189l0.094,0.095l-0.142,0.614l0.095,0.237l-0.095,0.284
			l0.188,0.473v0.284l0.143,0.095v0.142l-0.095,0.237v0.189l-0.095,0.566v0.379l-0.094,0.615v0.947l-0.189,0.945l-0.237,0.852
			v-0.378v0.095l-0.095,0.236h-0.094l-0.096,0.473h-0.094l-0.096,0.332v-0.284l-0.094,0.142l-0.143,0.379l-0.094,0.095v-0.946
			h-0.189v-0.143l-0.095-0.094v-1.041V-264.77z M-206.098-299.596l-0.236,0.189l-0.379,0.141h0.189l-0.143,0.237h-0.236v-0.284
			l0.332-0.236L-206.098-299.596z M-205.861-300.543l-0.283,0.236l-0.143,0.474h-0.189l0.284-0.474l0.284-0.33L-205.861-300.543z
			 M-204.205-301.584l-0.189,0.284l-0.283,0.474h-0.237l0.331-0.474l0.332-0.331L-204.205-301.584z M-203.826-299.975v0.142h-0.332
			l-0.567,0.142l-0.236,0.143h0.236l-0.142,0.236l-0.236,0.143l-0.189,0.236l0.189,0.095l-0.189,0.378h-0.096l-0.236,0.143v0.283
			h-0.236l-0.236,0.143l-0.095,0.094l0.236-0.094l-0.284,0.236v0.143l-0.378,0.189l-0.095-0.096l0.331-0.236h-0.188l0.236-0.189
			l0.331-0.236l-0.237,0.095v-0.095l-0.236,0.095v-0.189h0.332v-0.236l0.142-0.095l-0.095-0.189l0.142-0.473v-0.143l0.237-0.189
			h0.33l1.089-0.473h0.331H-203.826z M-199.568-306.693l-0.473,0.283l0.473-0.379V-306.693z M-194.836-307.641h-0.473l0.473-0.142
			V-307.641z M-194.126-308.113h-0.142l-0.096-0.189l0.332-0.143l0.094,0.096L-194.126-308.113z M-194.41-307.641l-0.143,0.143
			h-0.188L-194.41-307.641z M-191.902-308.871l-0.473,0.143l-0.096,0.142l-0.804,0.379l-0.237,0.095l-0.378,0.283l-0.095-0.094
			l0.379-0.284l0.379-0.095l-0.096-0.095l-0.094-0.189l0.378-0.095l0.237-0.236l0.094,0.095h0.899L-191.902-308.871z
			 M-192.139-307.356l-0.284,0.142l0.142-0.142H-192.139z M-191.808-307.546h-0.095l-0.473,0.095l-0.096-0.095l0.143-0.142
			l0.331-0.095l0.284,0.095L-191.808-307.546z M-190.861-308.02h-0.189v-0.094L-190.861-308.02z M-187.738-310.195l-0.757,0.142
			v-0.142l0.284-0.143l0.615-0.189l-0.096,0.143l0.189,0.095L-187.738-310.195z M-183.006-311.143h-0.332l-0.805,0.189h0.379
			l-0.567,0.096l-0.474-0.096l0.662,0.236h-0.662l-1.183,0.048l-1.041,0.189l0.095-0.095h0.236l-0.095-0.143l-0.331,0.096
			l0.189-0.236l0.805-0.237h0.142v-0.095l0.236-0.189l0.379-0.189l0.614-0.142h0.237l0.663-0.095h0.473l-0.615,0.236l-0.473,0.189
			l0.615-0.094l0.188-0.096l0.567-0.142h0.285l-0.474,0.237l0.378-0.096h0.379v-0.047h0.143l-0.143,0.189l-0.379,0.236
			L-183.006-311.143z M-184.758-310.479v-0.095h0.475l-0.189,0.143L-184.758-310.479z M-187.881-308.303l-0.283,0.283l-0.473,0.189
			h-0.237l0.331-0.378l0.332-0.095H-187.881z M-187.17-308.871l-0.284,0.143l-0.331-0.189h-0.568l-0.473,0.143l0.473-0.143
			l0.095,0.143l0.284-0.096l0.283,0.096v0.283l-0.094,0.143h-0.758l-0.473,0.188l0.236,0.142l-0.379,0.285l-0.33,0.141h-0.285v0.096
			h-0.473l0.284,0.142l-0.379,0.236l-0.236-0.142v0.236l-0.474,0.284l-0.142-0.142l-0.142,0.236l-0.332,0.189v-0.284l-0.189,0.236
			h-0.283l0.142-0.095h-0.236l0.142-0.142l-0.473,0.378h-0.143l-0.236,0.379l-0.852,0.473v0.143l-0.236,0.189h-0.236v-0.143
			l-0.237,0.143l-0.236-0.095v-0.095l-0.379,0.095l0.189-0.189l0.474-0.236h0.236l0.473-0.331v-0.189l-0.378,0.189h-0.189
			l-0.474,0.236l-0.236,0.236l-0.283,0.095l-0.285,0.189l-0.473,0.189l0.236-0.189l-0.473,0.236v-0.142l0.331-0.332l0.474-0.283
			l0.142-0.236l-0.474,0.189l-0.094,0.142l-0.663,0.474h-0.284l0.284-0.285l0.189-0.188l0.331-0.284l0.568-0.473h0.142l0.378-0.236
			l0.711-0.379h-0.096l0.284-0.236h-0.188l0.094-0.237l0.379-0.188h0.189v0.094h0.189l-0.474,0.332l0.095,0.188l-0.095,0.095
			l0.474-0.236l0.473,0.236l0.758-0.189l0.378-0.236l0.378-0.236l-0.094-0.143h0.236v0.096l0.568-0.285h0.189l0.473-0.188h-0.473
			l0.33-0.284v-0.095l0.663-0.474l0.71-0.188l0.473-0.095l-0.331,0.236l0.474-0.236h0.473l0.568,0.189l0.094,0.142L-187.17-308.871z
			 M-185.277-310.006h-0.236l-0.189,0.189h-0.284v-0.189l-0.189,0.094h-0.378l-0.285-0.094l0.096-0.237l0.142-0.095h0.615
			l0.567-0.142l0.096,0.142h-0.285l-0.094,0.143h0.473L-185.277-310.006z M-186.225-309.438l-0.473,0.236l-0.331-0.188l0.284-0.237
			l-0.236,0.095l-0.189-0.095l0.142-0.095h0.474l0.473,0.095v0.095L-186.225-309.438z M-181.256-311.143h-1.514l0.473-0.33
			l0.143-0.143v-0.143l0.379-0.188l0.378,0.095h0.474l-0.096,0.142h0.096l-0.096,0.284l0.332,0.095L-181.256-311.143z
			 M-185.23-309.391h-0.568l0.379-0.189h0.284L-185.23-309.391z M-181.587-310.669v-0.188h0.142L-181.587-310.669z
			 M-184.095-309.533h-0.71l-0.236-0.189l0.331-0.189h0.284v0.189l0.283-0.283v0.142l0.285,0.095h-0.474h0.378L-184.095-309.533z
			 M-182.676-310.102l-0.473-0.094l-0.473,0.094l0,0l-0.189-0.188l0.331-0.142h0.095l0.236-0.237l0.236-0.142h0.332l-0.379,0.283
			l0.568-0.283h0.567v0.331h-0.993l-0.379,0.095l0.473,0.095L-182.676-310.102z M-184.426-309.249l-0.379,0.095h-0.142l-0.095,0.142
			l-0.473,0.095l0.236-0.143l-0.474,0.143h-0.236v0.095h-0.237v0.284l-0.33,0.236l-0.332,0.189l-0.142-0.095l-0.189,0.095v-0.189
			l0.615-0.615l0.237-0.095l0.094-0.095l0.473-0.189h0.947l0.331-0.142h0.378L-184.426-309.249z M-181.445-310.29l-0.283-0.189
			l0.283-0.142v0.142l0.143-0.284h0.236l0.189-0.094l0.095,0.094l-0.189,0.095l-0.189,0.237L-181.445-310.29z M-184-309.154
			l-0.283,0.142h-0.096l0.284-0.189L-184-309.154z M-182.107-309.864v-0.095h-0.095l0.142-0.189l0.379,0.143L-182.107-309.864z
			 M-181.775-309.723l-0.332-0.094l0.568-0.143L-181.775-309.723z M-183.385-309.061h-0.521l0.331-0.188l0.473,0.142
			L-183.385-309.061z M-182.344-309.297h-0.805l-0.331-0.094l0.142-0.096h1.277L-182.344-309.297z M-182.344-308.445h-0.946v0.143
			h-0.805l-0.284-0.332l0.284-0.188l0.663-0.095l-0.096,0.143l0.474-0.096l0.474,0.096l0.331,0.236L-182.344-308.445z
			 M-182.344-307.025l-0.284,0.189l-0.567,0.189l-0.284-0.189l-0.237-0.331v0.331l-0.709-0.473h-0.143v-0.474l-0.236,0.236h-0.094
			l0.188-0.284l-0.331,0.284h-0.283l-0.663-0.474l-0.095,0.143h-0.189l-0.094-0.331h0.236l0.283-0.379l0.474-0.331h0.284v0.283
			h0.378l-0.188,0.096l-0.285,0.094h0.474l0.095-0.142l0.332,0.142l-0.096,0.189h0.947l-0.237,0.143v0.473l0.284-0.473l0.236-0.143
			l0.615-0.094l0.095,0.188l0.284-0.142v0.473h0.142l-0.615,0.189l0.379-0.094l0.188,0.141l-0.142,0.189L-182.344-307.025z
			 M-139.284-276.268v0.283l0.095,0.568l-0.095,0.615l-0.284,0.094l-0.189-0.473l0.096-0.852l0.283-0.474L-139.284-276.268z
			 M-180.451-271.536v-0.095l-0.473,0.236h-0.189l-0.236-0.331h0.142l0.188-0.189h0.332l0.662-0.188l-0.379,0.236v0.236
			L-180.451-271.536z M-174.016-240.495l-0.143-0.095l0.143-0.143V-240.495z M-187.975-287.151v0.236h-0.143L-187.975-287.151z
			 M-188.921-288.098v0.379l-0.142-0.096l-0.096-0.33L-188.921-288.098z M-187.975-288.24v0.284l-0.189,0.095l-0.331,0.473v-0.33
			h-0.142v-0.474h0.33v0.189L-187.975-288.24z M-194.41-288.523l0.473-0.474l-0.188-0.095v-0.283l0.474-0.236h-0.615l-0.143-0.237
			l0.473-0.331l0.096-0.284h-0.189l-0.379,0.237l0.473-0.568l0.096-0.331l0.378-0.284l0.142-0.331h0.143l0.473-0.331l0.474,0.283
			l-0.142,0.143l-0.474,0.094l-0.189,0.237h0.379l0.474,0.189l-0.096,0.188l-0.852,0.663l0.143,0.284v0.189l-0.143,0.567
			l0.143,0.615l-0.236,0.71h-0.332l0.474,0.236v0.379l-0.142,0.236l-0.615,0.236l0.283,0.143l-0.094,0.189h-0.474l-0.474-0.189
			l-0.662-0.143v-0.142h-0.379l-0.142,0.188l-0.142-0.236h-0.474l0.804-0.473l0.379,0.236l0.284-0.189h-0.331l-0.143-0.331h-0.236
			v-0.284h0.474l0.284-0.379l-0.189-0.094l0.379-0.189L-194.41-288.523z M-207.849-275.274l-0.095,0.189l-0.142-0.095
			L-207.849-275.274z M-207.99-275.748l-0.379,0.189v-0.331L-207.99-275.748z M-207.423-274.943l0.284-0.283v0.188L-207.423-274.943
			z M-196.397-278.635l0.095,0.189l-0.332,0.284l-0.236-0.378L-196.397-278.635z M-183.621-289.044l0.283,0.142l-0.473,0.143v-0.237
			L-183.621-289.044z M-183.479-289.328l-0.095,0.284l-0.095-0.189L-183.479-289.328z M-163.274-231.174h0.189l0.331-0.189
			l-0.284,0.143h-0.095l-0.283,0.142h-0.189L-163.274-231.174z M-192.707-279.438l-0.094,0.474l-0.379,0.473l-0.143-0.189v-0.473
			l0.189-0.236L-192.707-279.438z M-198.527-252.467l-0.142,0.283l-0.142-0.094l0.094-0.284L-198.527-252.467z M-186.225-272.436
			l0.474,0.143l0.805,0.331h-0.946v-0.142l-0.615-0.285L-186.225-272.436z M-183.621-272.814l-0.332,0.379v-0.189L-183.621-272.814z
			 M-186.129-274.99l0.283,0.236v0.189l-0.473-0.332L-186.129-274.99z M-184.426-274.99v0.189l-0.332-0.189H-184.426z
			 M-192.139-304.518l-0.236,0.189l-0.189-0.189l0.379-0.283h0.473L-192.139-304.518z M-190.104-300.969h-0.143l-0.331-0.236h0.662
			L-190.104-300.969z M-188.59-301.584l-0.095,0.379l-0.189,0.095v-0.474H-188.59z M-188.4-301.584l-0.143,0.284l-0.142-0.378
			L-188.4-301.584z M-188.4-301.773v0.189l-0.236-0.331L-188.4-301.773z M-186.508-301.867l-0.143,0.142l-0.142-0.095
			L-186.508-301.867z M-182.959-305.842l-0.379,0.142l0.379-0.237V-305.842z M-182.013-305.369v0.379l-0.236,0.379h-0.237
			l-0.473-0.285l-0.283-0.094l0.283,0.236l0.095,0.189l-0.474,0.094l0.71,0.096l-0.378,0.142l-0.474,0.095h0.804l-0.094,0.142
			l0.379-0.095l0.094,0.474h-0.615l-0.236,0.048l-0.094,0.188h-0.285v-0.188h-0.33v0.188l-0.379,0.189h-0.474l-0.662,0.284h0.236
			v0.283l-0.188-0.189l-0.143,0.143l0.143,0.236l-0.332,0.143v-0.332h-0.331l-0.284,0.143l0.189,0.142l-0.615,0.474v-0.143
			l-0.473,0.189l0.094,0.236h-0.189l-0.141-0.236h-0.237v0.284l-0.237,0.188l-0.33-0.094v-0.332l-0.379-0.094v0.189h-0.236
			l-0.143,0.283l-0.094,0.474h-0.237v0.284l-0.474,0.33l-0.283-0.236l0.283-0.378l0.143-0.331l-0.189,0.142l-0.473-0.189
			l-0.379,0.095l0.236,0.143h-0.283v0.142l0.473,0.095v0.331l0.095,0.142h-1.325l-0.283-0.142h-0.379l-0.332-0.379h-0.804
			l-0.474,0.142l-0.189-0.142h-0.283l-0.189-0.095l0.143-0.189h-0.332l-0.189-0.189l-0.331,0.096v0.047l-0.474,0.236v-0.142
			l-0.141,0.284l-0.237,0.142h-0.331l-0.379,0.095l-0.142-0.095l-0.474,0.331l-0.946,0.332v-0.096l-0.284,0.237v-0.379h-0.142
			l0.284-0.331l0.236-0.284l-0.142-0.378h0.142l0.236-0.474l0.474-0.189l0.189-0.331l0.331-0.143l0.189-0.236l0.331-0.236
			l0.331-0.095l0.379,0.142v-0.283h-0.236l1.041-0.473l0.283-0.285h0.568l0.142-0.236l0.189,0.284l-0.095-0.284l0.662-0.094v0.142
			h0.236v0.142l0.947-0.189l0.142-0.331l0.237-0.284l0.33-0.094l-0.33,0.473l0.473-0.189l0.236-0.236l0.143,0.143l0.094-0.332
			l-0.189,0.095v-0.142l0.189-0.189h0.852l0.096-0.189h0.236l0.189-0.095l0.473-0.142l0.473-0.189l0.143-0.095h0.473l0.379-0.331
			l0.236-0.284h-0.33l0.188-0.284h-0.188l0.141-0.142l0.285-0.142v0.142l0.283-0.189h0.284l-0.095,0.284h0.189v-0.236l0.662-0.332
			h0.236v0.332l0.189,0.142l-0.094,0.095l0.283,0.095h0.473l0.237-0.189l0.474,0.284l-0.143,0.094h0.473l0.474,0.379l-0.567,0.284
			h0.189l0.473-0.095l-0.379,0.332l-0.189,0.094h0.474l0.237-0.142h0.33l-0.094,0.236l0.094,0.095l0.237-0.143L-182.013-305.369z
			 M-135.972-262.215v0.095l-0.095,0.284v0.189v-0.189L-135.972-262.215z M-136.303-261.41v0.331l-0.095,0.237v-0.284l0.142-0.331
			L-136.303-261.41z M-136.02-262.12l0.096-0.284v0.143l-0.379,1.136v-0.331l0.189-0.332v-0.189L-136.02-262.12z M-135.546-263.635
			l-0.142,0.474l-0.095,0.331v0.379v-0.331l0.142-0.237v-0.378l0.143-0.474L-135.546-263.635z M-136.397-261.031l-0.142,0.473
			L-136.397-261.031z M-136.539-261.174l-0.143,0.474l-0.142,0.236v-0.188L-136.539-261.174z M-138.338-258.523l0.236-0.284v-0.142
			l0.285-0.143v-0.142l0.094,0.236l0.474-0.662l0.095-0.474l0.094-0.094l0.096-0.096l0.142-0.236l-0.095,0.284h0.095l0.142-0.474
			h0.095l-0.095,0.332v0.142l-0.189,0.284l-0.189,0.283l-0.142,0.236v0.143l-0.284,0.331h-0.094l-0.236,0.331l-0.189,0.332
			l-0.189,0.189l-0.236,0.33v-0.236l-0.237,0.284L-138.338-258.523z M-135.262-265.953v0.474v-0.663V-265.953z M-135.262-266.283
			v0.709v-0.757V-266.283z M-135.972-263.775v-0.521v0.474V-263.775z M-135.025-268.271v-0.283V-268.271z M-137.676-261.315h0.143
			v0.189l-0.189,0.284v-0.474H-137.676z M-134.931-269.028v-0.331v0.473V-269.028z M-134.931-268.744v-0.189v0.473V-268.744z
			 M-138.148-261.174l0.095,0.379l0.142-0.095v0.378l-0.236,0.096v-0.332l-0.189,0.189v-0.283L-138.148-261.174z M-134.836-270.021
			v-0.143V-270.021z M-135.025-268.461v0.474v-0.331V-268.461z M-140.42-258.808l0.096,0.378l-0.143,0.096v-0.189L-140.42-258.808z
			 M-134.883-270.732v0.237v-0.095V-270.732z M-141.035-259.707l0.189,0.143l-0.094,0.331l-0.237-0.284L-141.035-259.707z
			 M-135.025-270.921v1.088l-0.095,0.474l-0.095,0.615l-0.142,0.567v1.041l0.095-0.188v-0.475l0.095-0.283v-0.143l0.095-0.473v0.379
			l-0.095,0.473v0.615h-0.095v1.514l-0.095,0.189v-0.945V-266l-0.095,0.852l-0.095,0.615l-0.095,0.379l0.095-0.805v-0.473v0.283
			v-0.331l0.095-0.804v-1.515l0.095-0.474v-0.189l0.095-0.473v-0.095l0.236-0.946v-0.473V-270.921z M-139.568-261.646v0.283
			l-0.094-0.189L-139.568-261.646z M-134.931-271.584v0.899v-1.704v0.947v-0.899v0.71v-0.143v0.096V-271.584z M-134.931-273.003
			v0.474V-273.003z M-141.744-260.038l0.236,0.142h-0.236V-260.038z M-135.782-269.406v0.094V-269.406z M-137.676-265.479v0.284
			h-0.094L-137.676-265.479z M-142.028-261.6h0.284l0.473-0.473l0.379,0.236v0.189h0.615l0.331,0.379h0.095v-0.285l0.189,0.189
			h0.236l0.143,0.237l0.141-0.142l0.096,0.094l0.142-0.189h0.095l-0.143,0.805h0.143l0.142-0.283v0.473l0.142,0.095l0.237-0.189
			l0.095,0.331v0.332l-0.236,1.277h-0.096l-0.094,0.189h-0.096v0.236h-0.094l-0.143-0.143h-0.378v-0.236h-0.189l-0.142-0.189
			l-0.189-0.473v-0.284l-0.236-0.236h-0.236v-0.284l-0.237-0.473h-0.331v-0.284l-0.332-0.237h-0.141l-0.474-0.236l-0.095-0.331
			L-142.028-261.6z M-143.921-265.857l0.188,0.709v0.758l-0.094-0.096v-0.945L-143.921-265.857z M-194.979-289.564l-0.473,0.757
			l-0.473,0.474l-0.284-0.189l-0.615,0.094l-0.474-0.141v-0.379h0.284l0.663-0.474l-0.096-0.474h0.284l0.142-0.378l0.379,0.236
			l0.284-0.188h-0.142l0.378-0.285h0.331l-0.094,0.237l0.473,0.095l-0.143,0.473l-0.473,0.236L-194.979-289.564z M-191.192-297.799
			l-0.095,0.475l-0.143,0.094l0.096,0.284l-0.284,0.284l-0.474,0.142l-0.852-0.095l-0.142-0.095h-0.474l-0.142-0.284v-0.426
			l-0.237-0.189l0.474-0.094l0.095-0.284l-0.143-0.331l0.474,0.331v-0.142h0.189l-0.095-0.284l-0.236-0.189h0.283l0.285-0.142v0.283
			l0.141-0.283v0.379l-0.283,0.283l0.473,0.143h0.332v0.236h0.379L-191.192-297.799z M-193.085-278.397l0.095,0.615l-0.474,0.946
			l-0.188-0.143l-0.189,0.189l-0.143-0.331l0.189-0.474l0.095-0.756l0.095,0.188L-193.085-278.397z M-190.436-275.369l-0.331,0.331
			l-0.142,0.331l0.094,0.236l-0.188,0.237l-0.331-0.189l-0.947-0.946l0.284-0.283h0.379l0.142,0.283H-190.436z M-142.454-292.83
			l0.142,0.474l0.143,0.236v0.284l-0.189-0.143v-0.142l-0.568-1.183l-0.142-0.473v-0.474l-0.237-0.189l-0.473-0.663l-0.189-0.283
			l-0.094-0.236l0.283,0.331l-0.236-0.567l-0.332-0.474l-0.236-0.331l-0.662-0.758l-0.095-0.094l-0.284-0.285h-0.094l-0.189-0.283
			l-0.189-0.189h0.142l-0.236-0.236l0.142,0.095l-0.236-0.189h0.143l0.283,0.189h0.095l0.331,0.284l0.474,0.473l0.188,0.189v0.143
			l0.189,0.236l0.189,0.189l0.568,0.615l0.189,0.141l0.283,0.474l0.189,0.237l-0.143-0.143l0.143,0.236l0.284,0.474l-0.237-0.284
			l0.189,0.473l0.095,0.474h0.142l0.143,0.379l0.283,0.474v0.142h-0.094l-0.332-0.474v0.379l0.189,0.236L-142.454-292.83z
			 M-147.896-300.637l0.379,0.473v0.189l0.284,0.236l0.378,0.473l-0.142,0.189l0.237,0.332h-0.096l0.189,0.283l0.143-0.094v0.142
			l0.283,0.331l-0.189-0.189h-0.094l-0.236-0.189l-0.284-0.331l-0.189-0.188v-0.143l-0.474-0.473l-0.283-0.237l-0.284-0.142
			l-0.189-0.236h0.521l-0.095-0.284l-0.284-0.284l0.332,0.284l0.189,0.095L-147.896-300.637z M-140.088-288.43l0.189,0.285
			L-140.088-288.43z M-142.312-292.972l0.284,0.474h-0.142l0.094,0.236l0.189,0.331v0.095l-0.236-0.236l-0.331-0.568v-0.047
			l-0.189-0.379v-0.095L-142.312-292.972z M-141.603-291.268l0.474,0.709l0.142,0.474l-0.378-0.474l-0.237-0.473h-0.189l0.142,0.189
			l-0.142-0.096l-0.188-0.473l-0.143-0.143v-0.188v0.095l0.095-0.189l0.095,0.236v-0.142l0.094,0.142L-141.603-291.268z
			 M-141.98-290.085l0.094,0.378l-0.094-0.142V-290.085z M-149.457-259.328l0.236,0.095l0.331,0.378l0.378,0.568v0.615l-0.614,0.662
			h-0.284l-0.236-0.379l-0.189-0.709l0.143-0.852L-149.457-259.328z M-169.71-240.637l0.142,0.189l0.237,0.188l0.142,0.331v0.474
			l0.143,0.331l-0.189,0.236l-0.189-0.189h-0.189l0.095,0.474l-0.331,0.474l0.094,0.094l-0.141,0.379l-0.285,0.284l-0.709,1.183
			l-0.284,0.284l-0.284,0.615l-0.331,0.474l-0.567,0.141l-0.474,0.143h-0.378l-0.71-0.189l-0.189-0.189v-0.378l-0.237-0.237v-0.283
			l0.143-0.379l0.331-0.189l0.474-0.473v-0.143l-0.284-0.473v-0.473l0.331-0.379v-0.236h0.332l0.283-0.143l0.71-0.143l0.567-0.283
			l0.332-0.236v0.142l0.236-0.284l0.094-0.473h0.237l0.378-0.189l0.096-0.379L-169.71-240.637z M-164.41-237.799v0.189h-0.236
			L-164.41-237.799z M-183.338-296v0.236l-0.473,0.143L-183.338-296z M-182.77-296.189v0.236h-0.379L-182.77-296.189z
			 M-179.789-300.826l0.143,0.236l-0.284,0.283v-0.236h-0.378l0.236-0.189l-0.095-0.094H-179.789z M-180.262-301.773l0.189,0.143
			v0.283l0.236,0.189l-0.473,0.143l-0.379,0.473l-0.474,0.474l-0.188-0.474v-0.189l0.567-0.094h-0.474v-0.189l0.474-0.095h-0.474
			v-0.331l0.189-0.474h0.189l0.189,0.142l0.142-0.094v0.473l0.142-0.473L-180.262-301.773z M-179.315-301.915l0.474,0.189
			l-0.332,0.284l-0.236,0.094l-0.473-0.188l-0.143-0.331l0.379-0.189l0.142,0.236L-179.315-301.915z M-135.498-275.984l0.189,0.473
			v0.285l0.094,0.188v0.474l0.095,0.283l-0.095-0.473v0.568l0.095,0.236v0.473l-0.095,0.095v-0.095l-0.094-0.473v-0.189h-0.096
			v0.568v-0.143v0.898l-0.094-0.804v-0.946l0.094,0.189v-1.277l-0.094-0.379V-275.984z M-135.641-275.748l0.095,0.332v0.094
			L-135.641-275.748z M-135.641-276.457l0.143,0.283v-0.094L-135.641-276.457z M-135.782-275.842l0.142,0.757v0.236l0.095,0.284
			l-0.142-0.189v-0.473l-0.095-0.189V-275.842z M-135.782-276.174l0.142,0.474v0.71v-0.379L-135.782-276.174z M-136.256-274.564
			l0.143,0.331v2.508v-2.46L-136.256-274.564z M-135.782-276.646v-0.189l0.095,0.331l0.094,0.237v0.283l-0.094-0.473v0.142
			L-135.782-276.646z M-135.972-275.938l0.095-0.188v1.183l-0.095-0.805V-275.938z M-135.972-277.498v-0.048h0.095l0.143,0.615
			l0.094,0.237l-0.094-0.096v-0.189h-0.143v-0.188L-135.972-277.498z M-135.972-276.836h0.095v0.189h-0.095v0.236V-276.836z
			 M-136.445-276.457h0.189v0.283l0.095,0.379l-0.095-0.095l-0.189-0.331V-276.457z M-136.256-278.113l0.095,0.189L-136.256-278.113
			z M-137.438-279.533v-0.095l0.189-0.142l-0.095-0.236l0.189,0.567l0.142,0.142l0.142,0.568v0.473l0.143,0.474l0.189,0.236
			l0.142,0.331v-0.473h0.095v-0.236v0.236l0.189,0.142l0.094,0.284h-0.142l-0.095-0.189h-0.094l0.142,0.331h-0.142v0.237
			l-0.096,0.236v0.047l-0.094-0.473h-0.096l0.143,0.331l-0.143-0.095l-0.236-0.473l-0.094-0.379h0.142l-0.331-0.947l-0.236-0.662
			L-137.438-279.533z M-165.688-237.23l-0.332,0.143v-0.143H-165.688z M-148.512-301.205l0.332,0.379l-0.379-0.284L-148.512-301.205
			z M-149.363-302.151l0.332,0.474L-149.363-302.151z M-150.167-302.908l0.567,0.473l-0.473-0.379L-150.167-302.908z
			 M-153.479-305.512l0.474,0.237h-0.143L-153.479-305.512z M-153.385-303.287l0.568,0.189l0.756,0.473h0.285l0.473,0.284
			l0.568,0.189v0.236l0.852,0.615l0.709,0.284v0.236l0.474,0.284l-0.379-0.142l-0.284-0.237l-0.283-0.188l-0.189-0.143l-0.473-0.143
			l-0.474-0.378l-0.474-0.284l-0.283-0.236l-0.332-0.095l-0.378-0.188l-0.379-0.237l-0.188-0.142v-0.095l-0.285-0.237h-0.283
			V-303.287z M-153.479-302.341l0.284,0.189L-153.479-302.341z M-159.82-308.775h0.143l0.473,0.283l-0.379-0.095L-159.82-308.775z
			 M-166.303-309.723l0.189,0.095v0.142h-0.143L-166.303-309.723z M-168.811-310.669l0.283,0.142h-0.567L-168.811-310.669z
			 M-169.047-310.574l-0.284-0.143l-0.095-0.141h0.189l0.473,0.188L-169.047-310.574z M-170.939-299.076l0.141,0.143l-0.188,0.189
			L-170.939-299.076z M-165.972-306.553l0.189-0.141l0.236,0.094l-0.095,0.284l-0.283-0.142L-165.972-306.553z M-166.445-303.334
			l0.189,0.142l-0.236,0.095L-166.445-303.334z M-167.391-307.12v-0.474l0.188,0.096l0.237,0.236l-0.143,0.189L-167.391-307.12z
			 M-167.391-306.363l0.188-0.142h-0.331l0.143-0.188l0.142-0.237l0.378,0.095l0.474,0.568l-0.284,0.236h-0.379L-167.391-306.363z
			 M-170.324-303.713h0.709v0.236l-0.095,0.474l-0.614-0.474V-303.713z M-171.603-303.24l0.284-0.094v0.142L-171.603-303.24z
			 M-171.129-303.713h0.33l0.285,0.236l0.236,0.095v0.237l-0.332,0.094l-0.473-0.094l-0.189-0.332L-171.129-303.713z
			 M-171.934-303.902h0.473l0.189,0.284l-0.094,0.284h-0.332l-0.236-0.332V-303.902z M-174.3-295.574l-0.474,0.331l-0.094-0.331
			l0.189-0.143L-174.3-295.574z M-172.406-296.615l0.473,0.189l-0.189,0.189l-0.331-0.189L-172.406-296.615z M-173.921-298.129
			h0.236v0.567l0.331,0.567l0.473,0.236v0.143h-1.04l0.142-0.236l-0.283-0.095h-0.285l-0.188-0.189l0.188-0.142v-0.615
			L-173.921-298.129z M-172.738-300.732l0.284,0.237l-0.142,0.284l-0.711,0.709l-0.141,0.615h-0.237l0.142,0.474l-0.094,0.236
			h-0.474l-0.237-0.142l0.189-0.189v-0.379l0.096-0.473l0.188-0.332l0.567-0.283L-172.738-300.732z M-174.962-302.01l-0.142,0.143
			l-0.143-0.189L-174.962-302.01z M-176.382-302.01l-0.188,0.143l-0.189-0.095L-176.382-302.01z M-174.726-302.341v0.237
			l-0.378-0.048L-174.726-302.341z M-176.145-302.104l0.236,0.094l-0.474,0.379l-0.095-0.095L-176.145-302.104z M-174.631-302.577
			l0.189,0.142l-0.284,0.143L-174.631-302.577z M-193.938-291.031v0.189h-0.236L-193.938-291.031z M-193.559-291.741v0.378h-0.189
			v-0.283L-193.559-291.741z M-193.227-292.072l-0.474,0.189l0.188-0.284L-193.227-292.072z M-185.893-288.618l-0.473,0.71v-0.189
			L-185.893-288.618z M-185.184-288.808v0.331l-0.378,0.189v-0.379L-185.184-288.808z M-139.284-283.603h0.142v0.142l0.474,1.137
			l0.189,0.473l0.142,0.473l-0.189-0.189l-0.236-0.283l-0.142-0.473l-0.331-0.947L-139.284-283.603z M-176.949-243.57l0.189,0.283
			l-0.237-0.189L-176.949-243.57z M-207.375-300.921l-0.096,0.095v-0.143l0.189-0.283L-207.375-300.921z M-163.369-311.568h0.095
			l0.284,0.189L-163.369-311.568z M-166.113-312.372l0.567,0.142L-166.113-312.372z M-166.729-312.562h-0.143h0.474H-166.729z
			 M-168.148-312.939h-0.142l0.474,0.094h0.236L-168.148-312.939z M-181.729-313.744L-181.729-313.744h0.331H-181.729z
			 M-181.35-313.744l0.473-0.095h0.189h-0.758L-181.35-313.744z M-180.404-313.839h-0.189h0.285H-180.404z M-180.546-313.839h-0.331
			h0.236H-180.546z M-179.836-313.839h-0.379h0.284H-179.836z M-172.928-313.65h-0.283h1.041h-0.379H-172.928z M-179.693-313.839
			h-0.332h0.615H-179.693z M-179.979-313.839h-0.473h0.189H-179.979z M-173.117-313.65h-0.094h0.33H-173.117z M-168.669-312.703
			h0.331l0.189,0.094L-168.669-312.703z M-168.006-312.088h-0.096l-0.567-0.236h0.379l0.188,0.188h0.189L-168.006-312.088z
			 M-166.729-256.158h0.615l-0.236,0.189l-0.379,0.095V-256.158z"/>
		<path display="inline" fill="none" stroke="#B82266" stroke-width="2" d="M-179.979-274.375h5.017v5.962h-5.017V-274.375"/>
	</g>
	<g display="none">
		<path fill="none" stroke="#B82266" stroke-width="2" d="M-220.057-313.98"/>
		<path display="inline" fill="none" stroke="#B82266" stroke-width="2" d="M-220.057-313.98"/>
	</g>
</g>
</svg>
